{
	"asset":{
		"generator":"Khronos glTF Blender I/O v4.4.56",
		"version":"2.0"
	},
	"extensionsUsed":[
		"KHR_materials_specular"
	],
	"scene":0,
	"scenes":[
		{
			"name":"Scene",
			"nodes":[
				0,
				1
			]
		}
	],
	"nodes":[
		{
			"mesh":0,
			"name":"medicine1.jpg",
			"rotation":[
				0.7071068286895752,
				0,
				0,
				0.7071068286895752
			],
			"scale":[
				0.009999999776482582,
				0.009999999776482582,
				0.009999999776482582
			]
		},
		{
			"mesh":1,
			"name":"medicine2.jpg",
			"rotation":[
				0.7071068286895752,
				0,
				0,
				0.7071068286895752
			],
			"scale":[
				0.009999999776482582,
				0.009999999776482582,
				0.009999999776482582
			]
		}
	],
	"materials":[
		{
			"doubleSided":true,
			"extensions":{
				"KHR_materials_specular":{
					"specularColorFactor":[
						2.0,
						2.0,
						2.0
					]
				}
			},
			"name":"medicine1.jpg",
			"pbrMetallicRoughness":{
				"baseColorTexture":{
					"index":0
				},
				"metallicFactor":0.30000001192092896
			}
		},
		{
			"doubleSided":true,
			"extensions":{
				"KHR_materials_specular":{
					"specularColorFactor":[
						2.0,
						2.0,
						2.0
					]
				}
			},
			"name":"medicine2.jpg",
			"pbrMetallicRoughness":{
				"baseColorTexture":{
					"index":1
				},
				"metallicFactor":0.30000001192092896
			}
		}
	],
	"meshes":[
		{
			"name":"Mesh",
			"primitives":[
				{
					"attributes":{
						"POSITION":0,
						"NORMAL":1,
						"TEXCOORD_0":2
					},
					"indices":3,
					"material":0
				}
			]
		},
		{
			"name":"Mesh.001",
			"primitives":[
				{
					"attributes":{
						"POSITION":4,
						"NORMAL":5,
						"TEXCOORD_0":6
					},
					"indices":7,
					"material":1
				}
			]
		}
	],
	"textures":[
		{
			"sampler":0,
			"source":0
		},
		{
			"sampler":0,
			"source":1
		}
	],
	"images":[
		{
			"mimeType":"image/jpeg",
			"name":"medicine1",
			"uri":"medicine1.jpg"
		},
		{
			"mimeType":"image/jpeg",
			"name":"medicine2",
			"uri":"medicine2.jpg"
		}
	],
	"accessors":[
		{
			"bufferView":0,
			"componentType":5126,
			"count":15,
			"max":[
				7.267899990081787,
				7.42519998550415,
				-0.11879999935626984
			],
			"min":[
				-7.393799781799316,
				-7.236499786376953,
				-23.227699279785156
			],
			"type":"VEC3"
		},
		{
			"bufferView":1,
			"componentType":5126,
			"count":15,
			"type":"VEC3"
		},
		{
			"bufferView":2,
			"componentType":5126,
			"count":15,
			"type":"VEC2"
		},
		{
			"bufferView":3,
			"componentType":5123,
			"count":54,
			"type":"SCALAR"
		},
		{
			"bufferView":4,
			"componentType":5126,
			"count":10,
			"max":[
				3.3626999855041504,
				3.5199999809265137,
				-23.227699279785156
			],
			"min":[
				-3.488600015640259,
				-3.3313000202178955,
				-27.429399490356445
			],
			"type":"VEC3"
		},
		{
			"bufferView":5,
			"componentType":5126,
			"count":10,
			"type":"VEC3"
		},
		{
			"bufferView":6,
			"componentType":5126,
			"count":10,
			"type":"VEC2"
		},
		{
			"bufferView":7,
			"componentType":5123,
			"count":30,
			"type":"SCALAR"
		}
	],
	"bufferViews":[
		{
			"buffer":0,
			"byteLength":180,
			"byteOffset":0,
			"target":34962
		},
		{
			"buffer":0,
			"byteLength":180,
			"byteOffset":180,
			"target":34962
		},
		{
			"buffer":0,
			"byteLength":120,
			"byteOffset":360,
			"target":34962
		},
		{
			"buffer":0,
			"byteLength":108,
			"byteOffset":480,
			"target":34963
		},
		{
			"buffer":0,
			"byteLength":120,
			"byteOffset":588,
			"target":34962
		},
		{
			"buffer":0,
			"byteLength":120,
			"byteOffset":708,
			"target":34962
		},
		{
			"buffer":0,
			"byteLength":80,
			"byteOffset":828,
			"target":34962
		},
		{
			"buffer":0,
			"byteLength":60,
			"byteOffset":908,
			"target":34963
		}
	],
	"samplers":[
		{
			"magFilter":9729,
			"minFilter":9987
		}
	],
	"buffers":[
		{
			"byteLength":968,
			"uri":"mp_potion_small.bin"
		}
	]
}
