{
	"asset":{
		"generator":"Khronos glTF Blender I/O v4.4.56",
		"version":"2.0"
	},
	"extensionsUsed":[
		"KHR_materials_specular"
	],
	"scene":0,
	"scenes":[
		{
			"name":"Scene",
			"nodes":[
				57
			]
		}
	],
	"nodes":[
		{
			"name":"Bip01 Footsteps",
			"rotation":[
				-6.898716264913674e-08,
				-3.807854298543134e-08,
				0.7071062922477722,
				0.7071072459220886
			],
			"scale":[
				0.9999998807907104,
				0.9999998807907104,
				1
			],
			"translation":[
				1.1397410162317101e-05,
				-3.815554919128772e-06,
				-97.83674621582031
			]
		},
		{
			"name":"Bip01 L Toe02",
			"rotation":[
				1.0658142730467397e-14,
				1.0658141036401503e-14,
				5.960464477539063e-08,
				1
			],
			"scale":[
				1,
				0.9999999403953552,
				0.9999999403953552
			],
			"translation":[
				4.161460876464844,
				1.770344397300505e-06,
				-8.689414698892506e-07
			]
		},
		{
			"children":[
				1
			],
			"name":"Bip01 L Toe01",
			"rotation":[
				7.105428204633949e-15,
				2.1316282072803006e-14,
				3.7252863016590254e-09,
				1
			],
			"scale":[
				1,
				0.9999999403953552,
				0.9999999403953552
			],
			"translation":[
				4.161457538604736,
				8.166689440258779e-07,
				4.552031214188901e-07
			]
		},
		{
			"children":[
				2
			],
			"name":"Bip01 L Toe0",
			"rotation":[
				1.2052256082029089e-08,
				4.5138193627281e-08,
				0.7071066498756409,
				0.70710688829422
			],
			"scale":[
				1.0000001192092896,
				0.9999999403953552,
				1
			],
			"translation":[
				11.591201782226562,
				14.908243179321289,
				5.564011189562734e-07
			]
		},
		{
			"children":[
				3
			],
			"name":"Bip01 L Foot",
			"rotation":[
				5.024018978616596e-09,
				2.6807672526274473e-08,
				-0.0808112770318985,
				0.9967294335365295
			],
			"translation":[
				49.43048095703125,
				9.15765849640593e-06,
				-2.7779337870015297e-06
			]
		},
		{
			"children":[
				4
			],
			"name":"Bip01 L Leg1",
			"rotation":[
				-3.6495544364356647e-09,
				1.1272095257197634e-08,
				-0.14314024150371552,
				0.9897024035453796
			],
			"scale":[
				0.9999999403953552,
				1,
				1
			],
			"translation":[
				49.43048858642578,
				5.387884812080301e-06,
				-3.947725417674519e-06
			]
		},
		{
			"children":[
				5
			],
			"name":"Bip01 L Leg",
			"rotation":[
				0.3064802289009094,
				0.9508770704269409,
				0.013380547985434532,
				0.04151716083288193
			],
			"scale":[
				1,
				1.000000238418579,
				1
			],
			"translation":[
				-5.788457201560959e-06,
				1.7874395780381747e-05,
				10.281543731689453
			]
		},
		{
			"name":"Bip01 R Toe02",
			"rotation":[
				-6.394884621840902e-14,
				5.684341886080802e-14,
				-7.450566386069113e-09,
				1
			],
			"translation":[
				4.161459922790527,
				-1.6616568245808594e-06,
				4.808968014913262e-07
			]
		},
		{
			"children":[
				7
			],
			"name":"Bip01 R Toe01",
			"rotation":[
				6.99371724977027e-08,
				1.7111008787651372e-07,
				0.25881919264793396,
				0.9659257531166077
			],
			"translation":[
				4.161464214324951,
				3.8927628338569775e-06,
				1.0467365427757613e-06
			]
		},
		{
			"children":[
				8
			],
			"name":"Bip01 R Toe0",
			"rotation":[
				6.838372712536511e-08,
				-6.992320322751766e-08,
				0.7071065306663513,
				0.7071070075035095
			],
			"scale":[
				0.9999999403953552,
				0.9999998807907104,
				1
			],
			"translation":[
				11.59121036529541,
				14.908225059509277,
				-1.2948403309565037e-06
			]
		},
		{
			"children":[
				9
			],
			"name":"Bip01 R Foot",
			"rotation":[
				-0.03557076305150986,
				-0.025246145203709602,
				-0.037222202867269516,
				0.9983545541763306
			],
			"scale":[
				1,
				1.0000001192092896,
				1
			],
			"translation":[
				49.430477142333984,
				-1.5974044799804688e-05,
				2.205371856689453e-06
			]
		},
		{
			"children":[
				10
			],
			"name":"Bip01 R Leg1",
			"rotation":[
				2.964440781738631e-08,
				1.5202259007196517e-08,
				-0.3944169282913208,
				0.9189316034317017
			],
			"scale":[
				1.0000001192092896,
				1.000000238418579,
				1
			],
			"translation":[
				49.43048858642578,
				-1.1205673217773438e-05,
				2.384185791015625e-06
			]
		},
		{
			"children":[
				11
			],
			"name":"Bip01 R Leg",
			"rotation":[
				-0.12219084799289703,
				0.9897057414054871,
				-0.04626801237463951,
				0.05840598791837692
			],
			"scale":[
				1,
				0.999999463558197,
				1.0000001192092896
			],
			"translation":[
				2.8424612537492067e-05,
				-1.63019540195819e-05,
				-10.281534194946289
			]
		},
		{
			"name":"Bip01 Ponytail11",
			"rotation":[
				0.06746702641248703,
				0.17299367487430573,
				-0.0439506433904171,
				0.981626033782959
			],
			"scale":[
				0.9999999403953552,
				0.9999999403953552,
				1
			],
			"translation":[
				15.459754943847656,
				-0.013045569881796837,
				-0.0015528202056884766
			]
		},
		{
			"children":[
				13
			],
			"name":"Bip01 Ponytail1",
			"rotation":[
				0.12066669017076492,
				0.049767836928367615,
				-0.9162539839744568,
				0.37873658537864685
			],
			"translation":[
				6.884316444396973,
				-6.884271144866943,
				-2.0540512196021155e-05
			]
		},
		{
			"children":[
				14
			],
			"name":"Bip01 Head",
			"rotation":[
				-0.08371064066886902,
				-0.038208600133657455,
				-0.10595974326133728,
				0.9901036024093628
			],
			"scale":[
				0.9999997615814209,
				0.9999998211860657,
				0.9999998807907104
			],
			"translation":[
				5.140772819519043,
				4.5299530029296875e-06,
				2.0116567611694336e-06
			]
		},
		{
			"name":"Bip01 R Finger02",
			"rotation":[
				-1.851218058845916e-07,
				2.0561054725476424e-07,
				0.25881892442703247,
				0.9659258127212524
			],
			"translation":[
				3.6242449283599854,
				-2.86102294921875e-06,
				-6.9141387939453125e-06
			]
		},
		{
			"children":[
				16
			],
			"name":"Bip01 R Finger01",
			"rotation":[
				3.5867353176399774e-07,
				5.0137153095874964e-08,
				0.2588191032409668,
				0.9659258127212524
			],
			"scale":[
				0.9999999403953552,
				0.9999999403953552,
				1
			],
			"translation":[
				3.624244213104248,
				-4.291534423828125e-06,
				-1.1920928955078125e-06
			]
		},
		{
			"children":[
				17
			],
			"name":"Bip01 R Finger0",
			"rotation":[
				0.00042283470975235105,
				-0.00011298796016490087,
				0.2588195204734802,
				0.9659255743026733
			],
			"scale":[
				1,
				1,
				0.9999998807907104
			],
			"translation":[
				10.423908233642578,
				-1.8095929622650146,
				-0.031102657318115234
			]
		},
		{
			"name":"knife_gdf",
			"rotation":[
				-0.3942224085330963,
				-0.4970637261867523,
				0.5866508483886719,
				0.5033460855484009
			],
			"scale":[
				1,
				1.0000001192092896,
				1
			],
			"translation":[
				9.026153564453125,
				3.666961669921875,
				0.26108598709106445
			]
		},
		{
			"children":[
				18,
				19
			],
			"name":"Bip01 R Hand",
			"rotation":[
				0.706797182559967,
				-2.0010996593100572e-07,
				-3.686236382804964e-08,
				0.707416296005249
			],
			"scale":[
				0.9999999403953552,
				0.9999998807907104,
				0.9999999403953552
			],
			"translation":[
				27.473634719848633,
				2.2172927856445312e-05,
				6.079673767089844e-06
			]
		},
		{
			"children":[
				20
			],
			"name":"Bip01 R Arm2",
			"rotation":[
				1.4179369145495002e-07,
				-2.1368315117342718e-07,
				-0.2526000738143921,
				0.9675707817077637
			],
			"scale":[
				1.0000001192092896,
				1.0000001192092896,
				1.000000238418579
			],
			"translation":[
				37.6304931640625,
				1.049041748046875e-05,
				2.6941299438476562e-05
			]
		},
		{
			"children":[
				21
			],
			"name":"Bip01 R Arm1",
			"rotation":[
				0.08196362107992172,
				-0.5597406625747681,
				-0.099509097635746,
				0.8185782432556152
			],
			"scale":[
				0.9999998807907104,
				1,
				1
			],
			"translation":[
				13.400186538696289,
				-6.67572021484375e-06,
				6.198883056640625e-05
			]
		},
		{
			"children":[
				22
			],
			"name":"Bip01 R Arm",
			"rotation":[
				-0.6253607273101807,
				-0.12481993436813354,
				0.7606227993965149,
				0.12164263427257538
			],
			"scale":[
				0.9999998211860657,
				0.9999997019767761,
				0.9999989867210388
			],
			"translation":[
				2.98917293548584e-05,
				0.0041065216064453125,
				-6.477367401123047
			]
		},
		{
			"name":"Bip01 L Finger02",
			"rotation":[
				1.3787719410629506e-07,
				1.2052201725509804e-07,
				0.25881922245025635,
				0.9659258127212524
			],
			"scale":[
				0.9999999403953552,
				0.9999998807907104,
				0.9999998807907104
			],
			"translation":[
				3.624248743057251,
				-8.58306884765625e-06,
				-8.106231689453125e-06
			]
		},
		{
			"children":[
				24
			],
			"name":"Bip01 L Finger01",
			"rotation":[
				1.6583828710281523e-07,
				5.302968375531236e-08,
				0.25881877541542053,
				0.9659258723258972
			],
			"scale":[
				0.9999998807907104,
				0.9999999403953552,
				1
			],
			"translation":[
				3.624250888824463,
				-5.7220458984375e-06,
				-4.291534423828125e-06
			]
		},
		{
			"children":[
				25
			],
			"name":"Bip01 L Finger0",
			"rotation":[
				-0.0004222726565785706,
				0.00011292916315142065,
				0.25881990790367126,
				0.9659255146980286
			],
			"scale":[
				1,
				0.9999999403953552,
				1
			],
			"translation":[
				10.423919677734375,
				-1.8095817565917969,
				0.031080245971679688
			]
		},
		{
			"name":"hand_bofdgne01",
			"rotation":[
				0.5866519808769226,
				-0.5033447742462158,
				-0.3942234516143799,
				0.49706289172172546
			],
			"scale":[
				0.9999999403953552,
				0.9999999403953552,
				0.9999999403953552
			],
			"translation":[
				9.00060749053955,
				3.7695541381835938,
				0.5286469459533691
			]
		},
		{
			"children":[
				26,
				27
			],
			"name":"Bip01 L Hand",
			"rotation":[
				-0.7067974805831909,
				-1.6851369366577273e-07,
				-6.84586893839878e-08,
				0.7074159979820251
			],
			"scale":[
				1.0000001192092896,
				1.0000001192092896,
				1
			],
			"translation":[
				27.47364616394043,
				-3.0040740966796875e-05,
				-5.7220458984375e-06
			]
		},
		{
			"children":[
				28
			],
			"name":"Bip01 L Arm2",
			"rotation":[
				3.089322575533515e-08,
				-1.2170058738547596e-08,
				-0.10150980949401855,
				0.9948345422744751
			],
			"scale":[
				0.9999999403953552,
				0.9999998807907104,
				0.9999998807907104
			],
			"translation":[
				37.63043975830078,
				-3.0040740966796875e-05,
				-1.7642974853515625e-05
			]
		},
		{
			"children":[
				29
			],
			"name":"Bip01 L Arm1",
			"rotation":[
				0.25028499960899353,
				0.5525601506233215,
				-0.012038014829158783,
				0.794914960861206
			],
			"scale":[
				1,
				0.9999999403953552,
				1
			],
			"translation":[
				13.400171279907227,
				-1.430511474609375e-06,
				-3.165006637573242e-05
			]
		},
		{
			"children":[
				30
			],
			"name":"Bip01 L Arm",
			"rotation":[
				-0.60825514793396,
				0.2097606509923935,
				-0.7502215504646301,
				0.1522950381040573
			],
			"scale":[
				0.9999998211860657,
				0.9999996423721313,
				0.9999991655349731
			],
			"translation":[
				7.331371307373047e-06,
				0.004075527191162109,
				6.477371692657471
			]
		},
		{
			"children":[
				15,
				23,
				31
			],
			"name":"Bip01 Neck",
			"rotation":[
				3.259995651205827e-08,
				1.6672549918439472e-07,
				0.014999030157923698,
				0.9998875260353088
			],
			"scale":[
				0.9999998807907104,
				1.0000001192092896,
				1
			],
			"translation":[
				26.009647369384766,
				-0.004094228148460388,
				-5.237758159637451e-06
			]
		},
		{
			"children":[
				32
			],
			"name":"Bip01 Spine1",
			"rotation":[
				0.04166889935731888,
				0.04160189628601074,
				0.04543716832995415,
				0.9972304105758667
			],
			"scale":[
				1.0000001192092896,
				1,
				1.000000238418579
			],
			"translation":[
				19.803281784057617,
				-0.020564448088407516,
				-0.0017975879600271583
			]
		},
		{
			"name":"Bone04",
			"rotation":[
				3.201425791132806e-10,
				-1.82934556391956e-10,
				-7.647214417261239e-09,
				1
			],
			"scale":[
				0.9999999403953552,
				1,
				0.9999999403953552
			],
			"translation":[
				8.643473847769201e-07,
				-0.6064315438270569,
				-26.480520248413086
			]
		},
		{
			"children":[
				34
			],
			"name":"Bone03",
			"rotation":[
				0.3067567050457001,
				1.7481157854604135e-08,
				6.584797151987232e-09,
				0.9517880082130432
			],
			"scale":[
				0.9999999403953552,
				0.9999998211860657,
				0.9999998211860657
			],
			"translation":[
				3.4303320717299357e-07,
				-3.638545036315918,
				-20.012008666992188
			]
		},
		{
			"children":[
				35
			],
			"name":"Bone02",
			"rotation":[
				-0.2716752290725708,
				-7.794582757014723e-09,
				2.6452877666116592e-09,
				0.9623890519142151
			],
			"scale":[
				0.9999998807907104,
				0.9999999403953552,
				0.9999999403953552
			],
			"translation":[
				2.2367839846992865e-07,
				-0.6064210534095764,
				-3.2342841625213623
			]
		},
		{
			"children":[
				36
			],
			"name":"Bone01",
			"rotation":[
				0.7071068286895752,
				-0.0002818840730469674,
				0.7071066498756409,
				0.00028187918360345066
			],
			"scale":[
				1.000000238418579,
				1.000000238418579,
				1.0000001192092896
			],
			"translation":[
				15.155044555664062,
				10.590134620666504,
				2.4454315280308947e-05
			]
		},
		{
			"name":"Bone08",
			"rotation":[
				1.5279510989785194e-08,
				-2.8978244248634155e-09,
				-6.467789415154357e-09,
				1
			],
			"scale":[
				1,
				1,
				0.9999999403953552
			],
			"translation":[
				7.410471880575642e-07,
				2.62783145904541,
				-27.895511627197266
			]
		},
		{
			"children":[
				38
			],
			"name":"Bone07",
			"rotation":[
				-0.07603061944246292,
				-1.2925467363089638e-09,
				-1.8294362691406718e-09,
				0.9971054792404175
			],
			"scale":[
				1,
				0.9999999403953552,
				1
			],
			"translation":[
				1.0718003977672197e-06,
				5.457817554473877,
				-16.979877471923828
			]
		},
		{
			"children":[
				39
			],
			"name":"Bone06",
			"rotation":[
				-0.09531167149543762,
				6.268838781409158e-09,
				1.0927831972651347e-08,
				0.9954474568367004
			],
			"scale":[
				0.9999999403953552,
				0.9999998807907104,
				0.9999998807907104
			],
			"translation":[
				4.2018655221909285e-10,
				2.7865171432495117e-06,
				-2.6278374195098877
			]
		},
		{
			"children":[
				40
			],
			"name":"Bone05",
			"rotation":[
				0.7071068286895752,
				-0.00028202636167407036,
				0.7071066498756409,
				0.0002820199297275394
			],
			"scale":[
				1.0000001192092896,
				0.9999998807907104,
				1.0000001192092896
			],
			"translation":[
				16.351947784423828,
				-9.422823905944824,
				-2.1288404241204262e-05
			]
		},
		{
			"children":[
				33,
				37,
				41
			],
			"name":"Bip01 Spine",
			"rotation":[
				0.04161456972360611,
				-0.045454319566488266,
				0.045834265649318695,
				0.9970463514328003
			],
			"scale":[
				0.9999999403953552,
				0.9999999403953552,
				1.0000001192092896
			],
			"translation":[
				3.586334705352783,
				-0.01564549282193184,
				0.3124009966850281
			]
		},
		{
			"name":"mmm",
			"rotation":[
				-0.5000001192092896,
				-0.5000000596046448,
				-0.4999998211860657,
				0.5
			],
			"scale":[
				1,
				0.9999999403953552,
				1
			],
			"translation":[
				25.57855987548828,
				-5.954247951507568,
				1.875087022781372
			]
		},
		{
			"children":[
				6,
				12,
				42,
				43
			],
			"name":"Bip01 Pelvis",
			"rotation":[
				-0.47771382331848145,
				-0.4777145981788635,
				-0.521333634853363,
				0.5213344097137451
			],
			"scale":[
				0.9999998211860657,
				0.9999997615814209,
				0.9999998211860657
			],
			"translation":[
				-2.900763750076294,
				0.4704704284667969,
				-2.639402509885258e-07
			]
		},
		{
			"children":[
				0,
				44
			],
			"name":"Bip01",
			"rotation":[
				-0.7071072459220886,
				-0.7071062922477722,
				-4.1970164232907337e-08,
				4.197012515305687e-08
			],
			"translation":[
				-0.225071981549263,
				-3.2073140144348145,
				-97.82942199707031
			]
		},
		{
			"name":"Null 9",
			"rotation":[
				-1,
				0,
				0,
				1.6788608547813055e-07
			]
		},
		{
			"name":"Null 16",
			"rotation":[
				-1,
				0,
				0,
				1.6788608547813055e-07
			]
		},
		{
			"name":"Null 21",
			"rotation":[
				-1,
				0,
				0,
				1.6788608547813055e-07
			]
		},
		{
			"name":"Null 24",
			"rotation":[
				-1,
				0,
				0,
				1.6788608547813055e-07
			]
		},
		{
			"name":"Null 32",
			"rotation":[
				-1,
				0,
				0,
				1.6788608547813055e-07
			]
		},
		{
			"name":"Null 41",
			"rotation":[
				-1,
				0,
				0,
				1.6788608547813055e-07
			]
		},
		{
			"name":"Null 52",
			"rotation":[
				-1,
				0,
				0,
				1.6788608547813055e-07
			]
		},
		{
			"name":"Null 53",
			"rotation":[
				-1,
				0,
				0,
				1.6788608547813055e-07
			]
		},
		{
			"name":"Null 54",
			"rotation":[
				-1,
				0,
				0,
				1.6788608547813055e-07
			]
		},
		{
			"name":"Null 55",
			"rotation":[
				-1,
				0,
				0,
				1.6788608547813055e-07
			]
		},
		{
			"mesh":0,
			"name":"texture_class-warrior_v1.jpg",
			"skin":0
		},
		{
			"children":[
				56,
				45,
				46,
				47,
				48,
				49,
				50,
				51,
				52,
				53,
				54,
				55
			],
			"name":"Armature",
			"rotation":[
				0.7071068286895752,
				0,
				0,
				0.7071068286895752
			],
			"scale":[
				0.009999999776482582,
				0.009999999776482582,
				0.009999999776482582
			]
		}
	],
	"materials":[
		{
			"doubleSided":true,
			"extensions":{
				"KHR_materials_specular":{
					"specularColorFactor":[
						2.0,
						2.0,
						2.0
					]
				}
			},
			"name":"texture_class-warrior_v1.jpg",
			"pbrMetallicRoughness":{
				"baseColorTexture":{
					"index":0
				},
				"metallicFactor":0.30000001192092896
			}
		}
	],
	"meshes":[
		{
			"name":"Mesh",
			"primitives":[
				{
					"attributes":{
						"POSITION":0,
						"NORMAL":1,
						"TEXCOORD_0":2,
						"JOINTS_0":3,
						"WEIGHTS_0":4
					},
					"indices":5,
					"material":0
				}
			]
		}
	],
	"textures":[
		{
			"sampler":0,
			"source":0
		}
	],
	"images":[
		{
			"mimeType":"image/jpeg",
			"name":"texture_class-warrior_v1",
			"uri":"texture_class-warrior_v1.jpg"
		}
	],
	"skins":[
		{
			"inverseBindMatrices":6,
			"joints":[
				45,
				0,
				44,
				6,
				5,
				4,
				3,
				2,
				1,
				12,
				11,
				10,
				9,
				8,
				7,
				42,
				33,
				32,
				15,
				14,
				13,
				23,
				22,
				21,
				20,
				18,
				17,
				16,
				19,
				31,
				30,
				29,
				28,
				26,
				25,
				24,
				27,
				37,
				36,
				35,
				34,
				41,
				40,
				39,
				38,
				43,
				46,
				47,
				48,
				49,
				50,
				51,
				52,
				53,
				54,
				55
			],
			"name":"Armature"
		}
	],
	"accessors":[
		{
			"bufferView":0,
			"componentType":5126,
			"count":94,
			"max":[
				0.2453869730234146,
				1.507246971130371,
				0.16691090166568756
			],
			"min":[
				-0.2467929869890213,
				1.0067429542541504,
				-0.3428930938243866
			],
			"type":"VEC3"
		},
		{
			"bufferView":1,
			"componentType":5126,
			"count":94,
			"type":"VEC3"
		},
		{
			"bufferView":2,
			"componentType":5126,
			"count":94,
			"type":"VEC2"
		},
		{
			"bufferView":3,
			"componentType":5121,
			"count":94,
			"type":"VEC4"
		},
		{
			"bufferView":4,
			"componentType":5126,
			"count":94,
			"type":"VEC4"
		},
		{
			"bufferView":5,
			"componentType":5123,
			"count":360,
			"type":"SCALAR"
		},
		{
			"bufferView":6,
			"componentType":5126,
			"count":56,
			"type":"MAT4"
		}
	],
	"bufferViews":[
		{
			"buffer":0,
			"byteLength":1128,
			"byteOffset":0,
			"target":34962
		},
		{
			"buffer":0,
			"byteLength":1128,
			"byteOffset":1128,
			"target":34962
		},
		{
			"buffer":0,
			"byteLength":752,
			"byteOffset":2256,
			"target":34962
		},
		{
			"buffer":0,
			"byteLength":376,
			"byteOffset":3008,
			"target":34962
		},
		{
			"buffer":0,
			"byteLength":1504,
			"byteOffset":3384,
			"target":34962
		},
		{
			"buffer":0,
			"byteLength":720,
			"byteOffset":4888,
			"target":34963
		},
		{
			"buffer":0,
			"byteLength":3584,
			"byteOffset":5608
		}
	],
	"samplers":[
		{
			"magFilter":9729,
			"minFilter":9987
		}
	],
	"buffers":[
		{
			"byteLength":9192,
			"uri":"armor_class-warrior_v1.bin"
		}
	]
}
