{
	"asset":{
		"generator":"Khronos glTF Blender I/O v4.4.56",
		"version":"2.0"
	},
	"extensionsUsed":[
		"KHR_materials_specular"
	],
	"scene":0,
	"scenes":[
		{
			"name":"Scene",
			"nodes":[
				57
			]
		}
	],
	"nodes":[
		{
			"name":"Bip01 Footsteps",
			"rotation":[
				-6.898716264913674e-08,
				-3.807854298543134e-08,
				0.7071062922477722,
				0.7071072459220886
			],
			"scale":[
				0.9999998807907104,
				0.9999998807907104,
				1
			],
			"translation":[
				1.1397410162317101e-05,
				-3.815554919128772e-06,
				-97.83674621582031
			]
		},
		{
			"name":"Bip01 L Toe02",
			"rotation":[
				2.7533531010703882e-14,
				-9.171632897597704e-10,
				-5.21540641784668e-08,
				1
			],
			"scale":[
				1,
				1,
				0.9999999403953552
			],
			"translation":[
				4.16146183013916,
				1.4100696716923267e-06,
				-2.507961198716657e-07
			]
		},
		{
			"children":[
				1
			],
			"name":"Bip01 L Toe01",
			"rotation":[
				-1.270095140171179e-13,
				7.1054265105680546e-15,
				7.4505797087454084e-09,
				1
			],
			"scale":[
				1,
				1,
				0.9999999403953552
			],
			"translation":[
				4.161462306976318,
				2.1797450244775973e-07,
				1.7657556554695475e-06
			]
		},
		{
			"children":[
				2
			],
			"name":"Bip01 L Toe0",
			"rotation":[
				2.468682858136617e-08,
				-1.3076006943890661e-08,
				0.7071065902709961,
				0.7071069478988647
			],
			"scale":[
				1,
				1.0000001192092896,
				1
			],
			"translation":[
				11.591202735900879,
				14.908233642578125,
				9.133159437624272e-07
			]
		},
		{
			"children":[
				3
			],
			"name":"Bip01 L Foot",
			"rotation":[
				-8.106417759279338e-09,
				2.4709741808237595e-08,
				-0.08081123977899551,
				0.9967294335365295
			],
			"scale":[
				0.9999998807907104,
				1,
				1
			],
			"translation":[
				49.43048858642578,
				1.061510465660831e-05,
				2.173293523810571e-06
			]
		},
		{
			"children":[
				4
			],
			"name":"Bip01 L Leg1",
			"rotation":[
				5.591343210653577e-07,
				-2.5091475208682823e-07,
				-0.14314019680023193,
				0.9897024035453796
			],
			"scale":[
				0.9999999403953552,
				0.9999997615814209,
				0.9999999403953552
			],
			"translation":[
				49.43050003051758,
				5.496912308444735e-06,
				3.094563726335764e-05
			]
		},
		{
			"children":[
				5
			],
			"name":"Bip01 L Leg",
			"rotation":[
				0.3064802587032318,
				0.9508770704269409,
				0.013380547985434532,
				0.041517164558172226
			],
			"scale":[
				0.9999999403953552,
				1.0000001192092896,
				1
			],
			"translation":[
				-5.788457201560959e-06,
				1.7874395780381747e-05,
				10.281543731689453
			]
		},
		{
			"name":"Bip01 R Toe02",
			"rotation":[
				2.842170943040401e-14,
				1.5865680325077847e-08,
				2.914335439641036e-16,
				1
			],
			"scale":[
				1.0000001192092896,
				1.0000001192092896,
				1
			],
			"translation":[
				4.161457538604736,
				2.1849232325621415e-06,
				-9.961910336642177e-07
			]
		},
		{
			"children":[
				7
			],
			"name":"Bip01 R Toe01",
			"rotation":[
				9.090096853014984e-08,
				-1.7007618424713655e-08,
				0.2588191032409668,
				0.9659258127212524
			],
			"scale":[
				0.9999999403953552,
				0.9999998211860657,
				1
			],
			"translation":[
				4.16146183013916,
				1.934430883920868e-06,
				-4.7603862185496837e-07
			]
		},
		{
			"children":[
				8
			],
			"name":"Bip01 R Toe0",
			"rotation":[
				6.930415707984139e-08,
				-4.0328547612489274e-08,
				0.7071066498756409,
				0.70710688829422
			],
			"scale":[
				0.9999999403953552,
				0.9999999403953552,
				1
			],
			"translation":[
				11.591205596923828,
				14.908235549926758,
				-1.8415112208458595e-06
			]
		},
		{
			"children":[
				9
			],
			"name":"Bip01 R Foot",
			"rotation":[
				-0.035570770502090454,
				-0.025246094912290573,
				-0.03722209110856056,
				0.9983545541763306
			],
			"translation":[
				49.43045425415039,
				2.86102294921875e-06,
				-5.185604095458984e-06
			]
		},
		{
			"children":[
				10
			],
			"name":"Bip01 R Leg1",
			"rotation":[
				4.988875730305153e-07,
				3.23301463822645e-07,
				-0.3944171369075775,
				0.9189314842224121
			],
			"translation":[
				49.43048095703125,
				1.7881393432617188e-06,
				-1.5020370483398438e-05
			]
		},
		{
			"children":[
				11
			],
			"name":"Bip01 R Leg",
			"rotation":[
				-0.12219078838825226,
				0.9897057414054871,
				-0.04626799747347832,
				0.05840599536895752
			],
			"scale":[
				1,
				1.0000001192092896,
				1.0000001192092896
			],
			"translation":[
				2.8424612537492067e-05,
				-1.63019540195819e-05,
				-10.281534194946289
			]
		},
		{
			"name":"Bip01 Ponytail11",
			"rotation":[
				0.06746707111597061,
				0.17299358546733856,
				-0.0439506471157074,
				0.9816260933876038
			],
			"scale":[
				1.0000001192092896,
				1.000000238418579,
				1
			],
			"translation":[
				15.45976448059082,
				-0.013052878901362419,
				-0.0015463829040527344
			]
		},
		{
			"children":[
				13
			],
			"name":"Bip01 Ponytail1",
			"rotation":[
				0.12066672742366791,
				0.04976791515946388,
				-0.9162538647651672,
				0.3787367641925812
			],
			"scale":[
				0.9999996423721313,
				1,
				0.9999999403953552
			],
			"translation":[
				6.884316444396973,
				-6.884267807006836,
				-2.1065532564534806e-05
			]
		},
		{
			"children":[
				14
			],
			"name":"Bip01 Head",
			"rotation":[
				-0.08371075987815857,
				-0.03820857033133507,
				-0.10595975071191788,
				0.9901036024093628
			],
			"scale":[
				0.9999999403953552,
				1,
				0.9999999403953552
			],
			"translation":[
				5.140772342681885,
				4.082918167114258e-06,
				-1.4901161193847656e-06
			]
		},
		{
			"name":"Bip01 R Finger02",
			"rotation":[
				-3.008229327861045e-07,
				1.807830329880744e-07,
				0.25881892442703247,
				0.9659258127212524
			],
			"scale":[
				0.9999998807907104,
				0.9999998807907104,
				1
			],
			"translation":[
				3.6242501735687256,
				-2.5033950805664062e-06,
				-1.0848045349121094e-05
			]
		},
		{
			"children":[
				16
			],
			"name":"Bip01 R Finger01",
			"rotation":[
				4.0688229319130187e-07,
				1.6390993096138118e-07,
				0.25881946086883545,
				0.9659256935119629
			],
			"scale":[
				1,
				1.0000001192092896,
				1.0000001192092896
			],
			"translation":[
				3.624234676361084,
				1.3113021850585938e-06,
				2.384185791015625e-07
			]
		},
		{
			"children":[
				17
			],
			"name":"Bip01 R Finger0",
			"rotation":[
				0.00042282353388145566,
				-0.00011296095181023702,
				0.25881925225257874,
				0.9659256935119629
			],
			"scale":[
				1,
				1,
				1.0000001192092896
			],
			"translation":[
				10.42389965057373,
				-1.8095943927764893,
				-0.031089067459106445
			]
		},
		{
			"name":"knife_gdf",
			"rotation":[
				-0.3942224085330963,
				-0.497063547372818,
				0.5866507887840271,
				0.5033462047576904
			],
			"scale":[
				1,
				1,
				0.9999999403953552
			],
			"translation":[
				9.02614974975586,
				3.666964292526245,
				0.2610999345779419
			]
		},
		{
			"children":[
				18,
				19
			],
			"name":"Bip01 R Hand",
			"rotation":[
				0.706797182559967,
				-1.843117836131114e-08,
				1.257269701682162e-07,
				0.707416296005249
			],
			"translation":[
				27.4736270904541,
				2.5272369384765625e-05,
				7.3909759521484375e-06
			]
		},
		{
			"children":[
				20
			],
			"name":"Bip01 R Arm2",
			"rotation":[
				1.2344534638941695e-07,
				-1.5400585695601876e-08,
				-0.25260016322135925,
				0.9675707221031189
			],
			"scale":[
				1.0000001192092896,
				1,
				1.000000238418579
			],
			"translation":[
				37.630496978759766,
				1.33514404296875e-05,
				1.430511474609375e-05
			]
		},
		{
			"children":[
				21
			],
			"name":"Bip01 R Arm1",
			"rotation":[
				0.08196365088224411,
				-0.5597408413887024,
				-0.09950921684503555,
				0.8185780644416809
			],
			"scale":[
				1,
				0.9999998211860657,
				0.9999998807907104
			],
			"translation":[
				13.40017318725586,
				-2.86102294921875e-06,
				3.0994415283203125e-06
			]
		},
		{
			"children":[
				22
			],
			"name":"Bip01 R Arm",
			"rotation":[
				-0.6253607273101807,
				-0.12481985986232758,
				0.7606227993965149,
				0.12164251506328583
			],
			"scale":[
				1,
				0.9999998807907104,
				0.9999989867210388
			],
			"translation":[
				-1.8477439880371094e-06,
				0.004111647605895996,
				-6.477373123168945
			]
		},
		{
			"name":"Bip01 L Finger02",
			"rotation":[
				2.9600212769764767e-07,
				5.206551989545005e-08,
				0.2588193118572235,
				0.9659257531166077
			],
			"scale":[
				0.9999999403953552,
				0.9999999403953552,
				0.9999998807907104
			],
			"translation":[
				3.6242430210113525,
				-5.7220458984375e-06,
				-5.245208740234375e-06
			]
		},
		{
			"children":[
				24
			],
			"name":"Bip01 L Finger01",
			"rotation":[
				9.195098507817066e-16,
				5.881473441604612e-08,
				0.2588186264038086,
				0.965925931930542
			],
			"scale":[
				1,
				0.9999999403953552,
				1
			],
			"translation":[
				3.624237060546875,
				-6.67572021484375e-06,
				-4.76837158203125e-06
			]
		},
		{
			"children":[
				25
			],
			"name":"Bip01 L Finger0",
			"rotation":[
				-0.0004224780132062733,
				0.00011290505790384486,
				0.2588197588920593,
				0.9659255743026733
			],
			"scale":[
				0.9999999403953552,
				0.9999998807907104,
				0.9999999403953552
			],
			"translation":[
				10.423914909362793,
				-1.8095827102661133,
				0.03108072280883789
			]
		},
		{
			"name":"hand_bofdgne01",
			"rotation":[
				0.5866517424583435,
				-0.5033450126647949,
				-0.39422348141670227,
				0.49706295132637024
			],
			"scale":[
				0.9999998807907104,
				0.9999999403953552,
				0.9999998807907104
			],
			"translation":[
				9.000614166259766,
				3.7695579528808594,
				0.528648853302002
			]
		},
		{
			"children":[
				26,
				27
			],
			"name":"Bip01 L Hand",
			"rotation":[
				-0.7067974209785461,
				-7.372472765609928e-08,
				9.347243690172036e-08,
				0.7074160575866699
			],
			"scale":[
				1,
				0.9999999403953552,
				1.0000001192092896
			],
			"translation":[
				27.4736328125,
				-1.1920928955078125e-05,
				-6.67572021484375e-06
			]
		},
		{
			"children":[
				28
			],
			"name":"Bip01 L Arm2",
			"rotation":[
				-4.680791754196889e-09,
				6.08502901400243e-08,
				-0.10150986909866333,
				0.9948345422744751
			],
			"scale":[
				1,
				0.9999999403953552,
				1
			],
			"translation":[
				37.63043975830078,
				-2.6226043701171875e-05,
				-7.152557373046875e-06
			]
		},
		{
			"children":[
				29
			],
			"name":"Bip01 L Arm1",
			"rotation":[
				0.25028496980667114,
				0.552560031414032,
				-0.012038039974868298,
				0.7949150800704956
			],
			"scale":[
				0.9999999403953552,
				0.9999999403953552,
				1
			],
			"translation":[
				13.400168418884277,
				-3.337860107421875e-06,
				-1.3828277587890625e-05
			]
		},
		{
			"children":[
				30
			],
			"name":"Bip01 L Arm",
			"rotation":[
				-0.60825514793396,
				0.20976071059703827,
				-0.7502215504646301,
				0.15229496359825134
			],
			"scale":[
				1.0000001192092896,
				0.9999999403953552,
				0.9999995231628418
			],
			"translation":[
				7.778406143188477e-06,
				0.004076182842254639,
				6.477370738983154
			]
		},
		{
			"children":[
				15,
				23,
				31
			],
			"name":"Bip01 Neck",
			"rotation":[
				1.0292271213074855e-07,
				-8.336274959219736e-08,
				0.014999039471149445,
				0.9998875260353088
			],
			"scale":[
				1,
				1.0000001192092896,
				1.0000001192092896
			],
			"translation":[
				26.009624481201172,
				-0.004089266061782837,
				-3.2782554626464844e-07
			]
		},
		{
			"children":[
				32
			],
			"name":"Bip01 Spine1",
			"rotation":[
				0.04166888818144798,
				0.04160216450691223,
				0.04543718323111534,
				0.9972304105758667
			],
			"scale":[
				1,
				0.9999999403953552,
				1
			],
			"translation":[
				19.80328369140625,
				-0.02055928111076355,
				-0.0018021157011389732
			]
		},
		{
			"name":"Bone04",
			"rotation":[
				3.3905966034808444e-08,
				-3.171525264633601e-10,
				-2.4054952474372726e-11,
				1
			],
			"scale":[
				1,
				0.9999999403953552,
				0.9999999403953552
			],
			"translation":[
				1.3810372365696821e-06,
				-0.6064251661300659,
				-26.48052215576172
			]
		},
		{
			"children":[
				34
			],
			"name":"Bone03",
			"rotation":[
				0.3067567050457001,
				-1.0294591845649848e-08,
				1.2779608482560434e-08,
				0.9517880082130432
			],
			"scale":[
				1,
				1,
				0.9999998807907104
			],
			"translation":[
				2.453064553264994e-06,
				-3.638547897338867,
				-20.012008666992188
			]
		},
		{
			"children":[
				35
			],
			"name":"Bone02",
			"rotation":[
				-0.271675169467926,
				-1.4260110425823314e-08,
				-8.413802099482837e-09,
				0.9623890519142151
			],
			"scale":[
				1,
				1,
				1.0000001192092896
			],
			"translation":[
				1.694934326224029e-08,
				-0.6064218878746033,
				-3.234276533126831
			]
		},
		{
			"children":[
				36
			],
			"name":"Bone01",
			"rotation":[
				0.70710688829422,
				-0.0002818765351548791,
				0.7071065902709961,
				0.00028189047588966787
			],
			"scale":[
				1,
				1.000000238418579,
				1
			],
			"translation":[
				15.155029296875,
				10.59013557434082,
				2.1512132661882788e-05
			]
		},
		{
			"name":"Bone08",
			"rotation":[
				2.980232949312267e-08,
				-9.298626757470174e-09,
				-1.2143017702470615e-09,
				1
			],
			"scale":[
				0.9999998807907104,
				0.9999998211860657,
				0.9999998807907104
			],
			"translation":[
				1.6043131836340763e-06,
				2.627837896347046,
				-27.8955135345459
			]
		},
		{
			"children":[
				38
			],
			"name":"Bone07",
			"rotation":[
				-0.07603058964014053,
				2.1388617099660223e-08,
				-1.3130920351045461e-08,
				0.9971055388450623
			],
			"scale":[
				0.9999998807907104,
				0.9999998211860657,
				0.9999998211860657
			],
			"translation":[
				5.493611752172001e-07,
				5.457814693450928,
				-16.97989273071289
			]
		},
		{
			"children":[
				39
			],
			"name":"Bone06",
			"rotation":[
				-0.09531131386756897,
				5.439806383122914e-09,
				9.959714475371584e-08,
				0.9954475164413452
			],
			"scale":[
				1.0000001192092896,
				0.9999999403953552,
				1.0000001192092896
			],
			"translation":[
				5.170436452317517e-07,
				5.401670932769775e-06,
				-2.6278116703033447
			]
		},
		{
			"children":[
				40
			],
			"name":"Bone05",
			"rotation":[
				0.70710688829422,
				-0.00028221335378475487,
				0.7071065902709961,
				0.00028234970523044467
			],
			"scale":[
				0.9999998807907104,
				0.9999998807907104,
				0.9999999403953552
			],
			"translation":[
				16.351940155029297,
				-9.422819137573242,
				-2.4775152269285172e-05
			]
		},
		{
			"children":[
				33,
				37,
				41
			],
			"name":"Bip01 Spine",
			"rotation":[
				0.04161521792411804,
				-0.04545445740222931,
				0.04583427682518959,
				0.9970462918281555
			],
			"scale":[
				0.9999998807907104,
				0.9999999403953552,
				0.9999999403953552
			],
			"translation":[
				3.586350202560425,
				-0.015646446496248245,
				0.3123987913131714
			]
		},
		{
			"name":"Mesh03",
			"rotation":[
				-0.5000001192092896,
				-0.5000000596046448,
				-0.4999998211860657,
				0.5
			],
			"scale":[
				1,
				0.9999999403953552,
				1
			],
			"translation":[
				25.57855987548828,
				-5.954247951507568,
				1.875087022781372
			]
		},
		{
			"children":[
				6,
				12,
				42,
				43
			],
			"name":"Bip01 Pelvis",
			"rotation":[
				-0.47771382331848145,
				-0.4777145981788635,
				-0.521333634853363,
				0.5213344097137451
			],
			"scale":[
				0.9999998211860657,
				0.9999997615814209,
				0.9999998211860657
			],
			"translation":[
				-2.900763750076294,
				0.4704704284667969,
				-2.639402509885258e-07
			]
		},
		{
			"children":[
				0,
				44
			],
			"name":"Bip01",
			"rotation":[
				-0.7071072459220886,
				-0.7071062922477722,
				-4.1970164232907337e-08,
				4.197012515305687e-08
			],
			"translation":[
				-0.225071981549263,
				-3.2073140144348145,
				-97.82942199707031
			]
		},
		{
			"name":"Null 9",
			"rotation":[
				-1,
				0,
				0,
				1.6788608547813055e-07
			]
		},
		{
			"name":"Null 16",
			"rotation":[
				-1,
				0,
				0,
				1.6788608547813055e-07
			]
		},
		{
			"name":"Null 21",
			"rotation":[
				-1,
				0,
				0,
				1.6788608547813055e-07
			]
		},
		{
			"name":"Null 24",
			"rotation":[
				-1,
				0,
				0,
				1.6788608547813055e-07
			]
		},
		{
			"name":"Null 32",
			"rotation":[
				-1,
				0,
				0,
				1.6788608547813055e-07
			]
		},
		{
			"name":"Null 41",
			"rotation":[
				-1,
				0,
				0,
				1.6788608547813055e-07
			]
		},
		{
			"name":"Null 52",
			"rotation":[
				-1,
				0,
				0,
				1.6788608547813055e-07
			]
		},
		{
			"name":"Null 53",
			"rotation":[
				-1,
				0,
				0,
				1.6788608547813055e-07
			]
		},
		{
			"name":"Null 54",
			"rotation":[
				-1,
				0,
				0,
				1.6788608547813055e-07
			]
		},
		{
			"name":"Null 55",
			"rotation":[
				-1,
				0,
				0,
				1.6788608547813055e-07
			]
		},
		{
			"mesh":0,
			"name":"texture_class-warrior_v1.jpg",
			"skin":0
		},
		{
			"children":[
				56,
				45,
				46,
				47,
				48,
				49,
				50,
				51,
				52,
				53,
				54,
				55
			],
			"name":"Armature",
			"rotation":[
				0.7071068286895752,
				0,
				0,
				0.7071068286895752
			],
			"scale":[
				0.009999999776482582,
				0.009999999776482582,
				0.009999999776482582
			]
		}
	],
	"materials":[
		{
			"doubleSided":true,
			"extensions":{
				"KHR_materials_specular":{
					"specularColorFactor":[
						2.0,
						2.0,
						2.0
					]
				}
			},
			"name":"texture_class-warrior_v1.jpg",
			"pbrMetallicRoughness":{
				"baseColorTexture":{
					"index":0
				},
				"metallicFactor":0.30000001192092896
			}
		}
	],
	"meshes":[
		{
			"name":"Mesh",
			"primitives":[
				{
					"attributes":{
						"POSITION":0,
						"NORMAL":1,
						"TEXCOORD_0":2,
						"JOINTS_0":3,
						"WEIGHTS_0":4
					},
					"indices":5,
					"material":0
				}
			]
		}
	],
	"textures":[
		{
			"sampler":0,
			"source":0
		}
	],
	"images":[
		{
			"mimeType":"image/jpeg",
			"name":"texture_class-warrior_v1",
			"uri":"texture_class-warrior_v1.jpg"
		}
	],
	"skins":[
		{
			"inverseBindMatrices":6,
			"joints":[
				45,
				0,
				44,
				6,
				5,
				4,
				3,
				2,
				1,
				12,
				11,
				10,
				9,
				8,
				7,
				42,
				33,
				32,
				15,
				14,
				13,
				23,
				22,
				21,
				20,
				18,
				17,
				16,
				19,
				31,
				30,
				29,
				28,
				26,
				25,
				24,
				27,
				37,
				36,
				35,
				34,
				41,
				40,
				39,
				38,
				43,
				46,
				47,
				48,
				49,
				50,
				51,
				52,
				53,
				54,
				55
			],
			"name":"Armature"
		}
	],
	"accessors":[
		{
			"bufferView":0,
			"componentType":5126,
			"count":100,
			"max":[
				0.19503499567508698,
				0.572180986404419,
				0.6214479804039001
			],
			"min":[
				-0.18935498595237732,
				-0.011580944992601871,
				-0.7602149844169617
			],
			"type":"VEC3"
		},
		{
			"bufferView":1,
			"componentType":5126,
			"count":100,
			"type":"VEC3"
		},
		{
			"bufferView":2,
			"componentType":5126,
			"count":100,
			"type":"VEC2"
		},
		{
			"bufferView":3,
			"componentType":5121,
			"count":100,
			"type":"VEC4"
		},
		{
			"bufferView":4,
			"componentType":5126,
			"count":100,
			"type":"VEC4"
		},
		{
			"bufferView":5,
			"componentType":5123,
			"count":378,
			"type":"SCALAR"
		},
		{
			"bufferView":6,
			"componentType":5126,
			"count":56,
			"type":"MAT4"
		}
	],
	"bufferViews":[
		{
			"buffer":0,
			"byteLength":1200,
			"byteOffset":0,
			"target":34962
		},
		{
			"buffer":0,
			"byteLength":1200,
			"byteOffset":1200,
			"target":34962
		},
		{
			"buffer":0,
			"byteLength":800,
			"byteOffset":2400,
			"target":34962
		},
		{
			"buffer":0,
			"byteLength":400,
			"byteOffset":3200,
			"target":34962
		},
		{
			"buffer":0,
			"byteLength":1600,
			"byteOffset":3600,
			"target":34962
		},
		{
			"buffer":0,
			"byteLength":756,
			"byteOffset":5200,
			"target":34963
		},
		{
			"buffer":0,
			"byteLength":3584,
			"byteOffset":5956
		}
	],
	"samplers":[
		{
			"magFilter":9729,
			"minFilter":9987
		}
	],
	"buffers":[
		{
			"byteLength":9540,
			"uri":"boots_class-warrior_v1.bin"
		}
	]
}
