{
	"asset":{
		"generator":"Khronos glTF Blender I/O v4.4.56",
		"version":"2.0"
	},
	"extensionsUsed":[
		"KHR_materials_specular"
	],
	"scene":0,
	"scenes":[
		{
			"name":"Scene",
			"nodes":[
				57
			]
		}
	],
	"nodes":[
		{
			"name":"Bip01 Footsteps",
			"rotation":[
				-6.451654854799926e-08,
				-3.3607854277306615e-08,
				0.7071062326431274,
				0.7071073055267334
			],
			"translation":[
				1.3108074199408293e-05,
				-1.1444092706369702e-05,
				-109.958251953125
			]
		},
		{
			"name":"Bip01 L Toe02",
			"rotation":[
				5.342948306008566e-15,
				2.5965344376552638e-14,
				4.7757370974510494e-14,
				1
			],
			"scale":[
				0.9999999403953552,
				0.9999999403953552,
				0.9999999403953552
			],
			"translation":[
				4.161457538604736,
				-4.7630783228669316e-07,
				-1.3299106740305433e-06
			]
		},
		{
			"children":[
				1
			],
			"name":"Bip01 L Toe01",
			"rotation":[
				1.1902979958015175e-13,
				2.5993099952168267e-14,
				4.775742518461912e-14,
				1
			],
			"scale":[
				0.9999999403953552,
				0.9999999403953552,
				0.9999999403953552
			],
			"translation":[
				4.1614580154418945,
				-4.772464308189228e-07,
				3.3676208488486736e-08
			]
		},
		{
			"children":[
				2
			],
			"name":"Bip01 L Toe0",
			"rotation":[
				-1.0682470019673929e-07,
				6.510400396564364e-08,
				0.7071067690849304,
				0.7071067690849304
			],
			"scale":[
				1.0000001192092896,
				1.0000001192092896,
				1.0000001192092896
			],
			"translation":[
				11.59119987487793,
				14.90822982788086,
				-1.2642560704989592e-06
			]
		},
		{
			"children":[
				3
			],
			"name":"Bip01 L Foot",
			"rotation":[
				1.1173007408160629e-08,
				5.276901404727141e-08,
				0.0499790757894516,
				0.9987502694129944
			],
			"scale":[
				1,
				1.0000001192092896,
				1.0000001192092896
			],
			"translation":[
				49.43046188354492,
				1.182090363727184e-05,
				-8.59831470734207e-06
			]
		},
		{
			"children":[
				4
			],
			"name":"Bip01 L Leg1",
			"rotation":[
				1.0847549525294653e-09,
				-4.58807782877102e-08,
				-0.09983338415622711,
				0.9950041770935059
			],
			"translation":[
				49.43050003051758,
				1.1215958693355788e-05,
				-2.01105467567686e-06
			]
		},
		{
			"children":[
				5
			],
			"name":"Bip01 L Leg",
			"rotation":[
				0.049979306757450104,
				0.9987502694129944,
				-4.6820449028928124e-07,
				6.707051625198801e-07
			],
			"scale":[
				0.9999999403953552,
				1.000000238418579,
				0.9999999403953552
			],
			"translation":[
				-4.900675776298158e-06,
				1.71603405760834e-05,
				10.281532287597656
			]
		},
		{
			"name":"Bip01 R Toe02",
			"rotation":[
				-9.26619959690407e-14,
				3.4361402612148595e-14,
				7.323715418838805e-12,
				1
			],
			"scale":[
				0.9999999403953552,
				0.9999999403953552,
				1
			],
			"translation":[
				4.161457538604736,
				-4.7643879952374846e-07,
				1.5311918559746118e-06
			]
		},
		{
			"children":[
				7
			],
			"name":"Bip01 R Toe01",
			"rotation":[
				-5.474232178670491e-13,
				9.113543253391754e-14,
				7.323715418838805e-12,
				1
			],
			"scale":[
				0.9999999403953552,
				0.9999999403953552,
				1
			],
			"translation":[
				4.161459922790527,
				4.001776687800884e-10,
				1.941100208568969e-06
			]
		},
		{
			"children":[
				8
			],
			"name":"Bip01 R Toe0",
			"rotation":[
				-1.0682455098276478e-07,
				6.510438765872095e-08,
				0.7071067094802856,
				0.7071068286895752
			],
			"scale":[
				1.0000001192092896,
				1,
				1.0000001192092896
			],
			"translation":[
				11.591197967529297,
				14.908231735229492,
				-3.105207326825621e-07
			]
		},
		{
			"children":[
				9
			],
			"name":"Bip01 R Foot",
			"rotation":[
				1.1173245439977109e-08,
				5.276913483953649e-08,
				0.04997916519641876,
				0.9987502694129944
			],
			"scale":[
				1.0000001192092896,
				1.0000001192092896,
				1.0000001192092896
			],
			"translation":[
				49.43046569824219,
				7.0361966209020466e-06,
				-7.644572178833187e-06
			]
		},
		{
			"children":[
				10
			],
			"name":"Bip01 R Leg1",
			"rotation":[
				1.084758949332354e-09,
				-4.588075697142813e-08,
				-0.0998334214091301,
				0.9950041770935059
			],
			"scale":[
				1,
				0.9999999403953552,
				1
			],
			"translation":[
				49.43049621582031,
				8.334154699696228e-06,
				-2.964652594528161e-06
			]
		},
		{
			"children":[
				11
			],
			"name":"Bip01 R Leg",
			"rotation":[
				0.049979306757450104,
				0.9987502694129944,
				-4.6820449028928124e-07,
				6.707051625198801e-07
			],
			"scale":[
				0.9999999403953552,
				1.000000238418579,
				0.9999999403953552
			],
			"translation":[
				1.2552790394693147e-05,
				-3.817403921857476e-06,
				-10.281539916992188
			]
		},
		{
			"name":"Bip01 Ponytail11",
			"rotation":[
				6.291045195894185e-08,
				5.004608283343259e-07,
				-0.10942986607551575,
				0.9939945340156555
			],
			"scale":[
				0.9999998807907104,
				1,
				1
			],
			"translation":[
				15.458342552185059,
				-0.012912750244140625,
				1.1038646334782243e-06
			]
		},
		{
			"children":[
				13
			],
			"name":"Bip01 Ponytail1",
			"rotation":[
				-1.6673309843895368e-08,
				2.56735665971064e-06,
				-0.9808180332183838,
				0.19492551684379578
			],
			"scale":[
				0.999999463558197,
				0.9999999403953552,
				1
			],
			"translation":[
				6.888317108154297,
				-6.881610870361328,
				-1.976958265004214e-05
			]
		},
		{
			"children":[
				14
			],
			"name":"Bip01 Head",
			"rotation":[
				-1.4953134286344039e-09,
				-1.4590025187999345e-08,
				-0.015398487448692322,
				0.9998814463615417
			],
			"translation":[
				5.140765190124512,
				-2.086298991343938e-06,
				-4.2433546809661493e-07
			]
		},
		{
			"name":"Bip01 R Finger02",
			"rotation":[
				9.468977824056424e-10,
				-1.3096726481087728e-10,
				-4.2653787168944746e-09,
				1
			],
			"scale":[
				1,
				0.9999999403953552,
				0.9999999403953552
			],
			"translation":[
				3.6242454051971436,
				9.016231160785537e-06,
				1.9371509552001953e-07
			]
		},
		{
			"children":[
				16
			],
			"name":"Bip01 R Finger01",
			"rotation":[
				3.0772755454933076e-09,
				-7.275957614183426e-11,
				6.278303033013799e-08,
				1
			],
			"scale":[
				1,
				0.9999999403953552,
				1
			],
			"translation":[
				3.6242384910583496,
				4.728350972982298e-07,
				2.980232238769531e-07
			]
		},
		{
			"children":[
				17
			],
			"name":"Bip01 R Finger0",
			"rotation":[
				0.0004374409036245197,
				-1.8480934560471951e-09,
				-2.7096271537629946e-07,
				0.9999999403953552
			],
			"scale":[
				1,
				0.9999999403953552,
				1
			],
			"translation":[
				10.423904418945312,
				-1.8095898628234863,
				-0.031091943383216858
			]
		},
		{
			"name":"knife_gdf",
			"rotation":[
				-0.394222617149353,
				-0.497063547372818,
				0.5866507887840271,
				0.5033459663391113
			],
			"scale":[
				1,
				1.0000001192092896,
				1
			],
			"translation":[
				9.026134490966797,
				3.666964054107666,
				0.26110273599624634
			]
		},
		{
			"children":[
				18,
				19
			],
			"name":"Bip01 R Hand",
			"rotation":[
				0.7067973017692566,
				2.2720525461039642e-09,
				-1.3513223962036136e-07,
				0.7074161767959595
			],
			"scale":[
				0.9999998807907104,
				0.9999999403953552,
				0.9999999403953552
			],
			"translation":[
				27.473600387573242,
				-1.1518597602844238e-05,
				-1.9592455373640405e-06
			]
		},
		{
			"children":[
				20
			],
			"name":"Bip01 R Arm2",
			"rotation":[
				-2.0788132104598844e-08,
				-3.705288875721635e-08,
				-0.012732978910207748,
				0.9999189376831055
			],
			"translation":[
				37.63042449951172,
				7.6293927122605965e-06,
				-3.814697265625e-06
			]
		},
		{
			"children":[
				21
			],
			"name":"Bip01 R Arm1",
			"rotation":[
				-2.3063801979361642e-09,
				-0.557826817035675,
				1.5501531169803684e-09,
				0.8299573659896851
			],
			"translation":[
				13.400163650512695,
				2.2737367544323206e-13,
				-2.8610220397240482e-06
			]
		},
		{
			"children":[
				22
			],
			"name":"Bip01 R Arm",
			"rotation":[
				-0.6329061388969421,
				0.009745371527969837,
				0.7740753889083862,
				0.011921262368559837
			],
			"scale":[
				1.0000001192092896,
				1,
				1
			],
			"translation":[
				-6.3294146457337774e-06,
				0.004111932590603828,
				-6.47736930847168
			]
		},
		{
			"name":"Bip01 L Finger02",
			"rotation":[
				-7.218333708536306e-10,
				-8.585631094959467e-10,
				-7.3236607889271e-09,
				1
			],
			"scale":[
				0.9999999403953552,
				0.9999999403953552,
				0.9999998807907104
			],
			"translation":[
				3.624241828918457,
				6.494568424386671e-06,
				-5.364418029785156e-07
			]
		},
		{
			"children":[
				24
			],
			"name":"Bip01 L Finger01",
			"rotation":[
				-2.165546186816414e-09,
				-1.0186340659856796e-10,
				-2.5975030126801357e-08,
				1
			],
			"scale":[
				0.9999999403953552,
				0.9999999403953552,
				0.9999998807907104
			],
			"translation":[
				3.6242458820343018,
				-1.7236136784504197e-07,
				-1.043081283569336e-07
			]
		},
		{
			"children":[
				25
			],
			"name":"Bip01 L Finger0",
			"rotation":[
				-0.00043754815123975277,
				-4.6784418117340465e-08,
				-1.3016516220432095e-07,
				0.9999999403953552
			],
			"scale":[
				1,
				0.9999999403953552,
				0.9999999403953552
			],
			"translation":[
				10.42390251159668,
				-1.8095725774765015,
				0.03109601140022278
			]
		},
		{
			"name":"hand_bofdgne01",
			"rotation":[
				0.586651623249054,
				-0.5033450722694397,
				-0.39422324299812317,
				0.4970630705356598
			],
			"scale":[
				0.9999998807907104,
				0.9999998807907104,
				0.9999998807907104
			],
			"translation":[
				9.000606536865234,
				3.7695653438568115,
				0.5286524891853333
			]
		},
		{
			"children":[
				26,
				27
			],
			"name":"Bip01 L Hand",
			"rotation":[
				-0.7067973017692566,
				2.902070583843397e-08,
				-4.157623223477458e-08,
				0.7074161767959595
			],
			"scale":[
				0.9999999403953552,
				1,
				1
			],
			"translation":[
				27.473615646362305,
				-2.0712614059448242e-06,
				-7.729813660262153e-06
			]
		},
		{
			"children":[
				28
			],
			"name":"Bip01 L Arm2",
			"rotation":[
				-9.684392177078394e-10,
				-1.5932583607991546e-07,
				-0.012733116745948792,
				0.9999189376831055
			],
			"scale":[
				0.9999998211860657,
				0.9999998211860657,
				0.9999998211860657
			],
			"translation":[
				37.63042449951172,
				-3.814700448856456e-06,
				-4.583000645652646e-12
			]
		},
		{
			"children":[
				29
			],
			"name":"Bip01 L Arm1",
			"rotation":[
				-1.4101193812621204e-07,
				0.5578267574310303,
				-1.4057953023893788e-07,
				0.8299574255943298
			],
			"scale":[
				0.9999999403953552,
				1,
				1
			],
			"translation":[
				13.400165557861328,
				3.814697265625e-06,
				-1.9073497696808772e-06
			]
		},
		{
			"children":[
				30
			],
			"name":"Bip01 L Arm",
			"rotation":[
				0.6329061388969421,
				-0.009747522883117199,
				0.7740753889083862,
				0.011919504962861538
			],
			"scale":[
				1.000000238418579,
				1.0000001192092896,
				0.9999999403953552
			],
			"translation":[
				7.236020337586524e-06,
				0.004077130928635597,
				6.477370262145996
			]
		},
		{
			"children":[
				15,
				23,
				31
			],
			"name":"Bip01 Neck",
			"rotation":[
				1.45148215668911e-09,
				1.421995676764709e-08,
				0.014999710023403168,
				0.9998875260353088
			],
			"scale":[
				0.9999998807907104,
				0.9999997615814209,
				0.9999998807907104
			],
			"translation":[
				26.009639739990234,
				-0.004095080774277449,
				-2.8866941192973172e-06
			]
		},
		{
			"children":[
				32
			],
			"name":"Bip01 Spine1",
			"rotation":[
				-6.339831770674209e-07,
				-2.1229215718676642e-08,
				-0.0001725510519463569,
				1
			],
			"scale":[
				1.0000001192092896,
				1,
				1
			],
			"translation":[
				19.80145263671875,
				-0.028789516538381577,
				-1.3097245528115309e-06
			]
		},
		{
			"name":"Bone04",
			"rotation":[
				-2.188657241553038e-14,
				-9.32587510091721e-15,
				1.37112557093734e-13,
				1
			],
			"scale":[
				0.9999999403953552,
				0.9999999403953552,
				0.9999999403953552
			],
			"translation":[
				9.999985195463523e-07,
				-0.6064268946647644,
				-26.480504989624023
			]
		},
		{
			"children":[
				34
			],
			"name":"Bone03",
			"rotation":[
				-0.020833415910601616,
				-1.7301030128934886e-13,
				1.2770337969058611e-14,
				0.9997829794883728
			],
			"scale":[
				0.9999999403953552,
				0.9999999403953552,
				1
			],
			"translation":[
				1.0000089787354227e-06,
				-3.638546943664551,
				-20.012001037597656
			]
		},
		{
			"children":[
				35
			],
			"name":"Bone02",
			"rotation":[
				0.016010595485568047,
				-2.3702490636878792e-08,
				3.734155484824697e-10,
				0.9998718500137329
			],
			"scale":[
				0.9999999403953552,
				0.9999999403953552,
				0.9999998807907104
			],
			"translation":[
				1.5329169400501996e-07,
				-0.6064192056655884,
				-3.234257936477661
			]
		},
		{
			"children":[
				36
			],
			"name":"Bone01",
			"rotation":[
				0.70710688829422,
				-0.000282188382698223,
				0.7071065902709961,
				0.0002821885282173753
			],
			"scale":[
				1,
				1.0000001192092896,
				1.0000001192092896
			],
			"translation":[
				15.155054092407227,
				10.590140342712402,
				2.2994399841991253e-05
			]
		},
		{
			"name":"Bone08",
			"rotation":[
				-3.5390282704383935e-08,
				-4.618527782440651e-14,
				3.730349701553705e-14,
				1
			],
			"scale":[
				0.9999999403953552,
				0.9999999403953552,
				1
			],
			"translation":[
				1.0000021575251594e-06,
				2.6278340816497803,
				-27.895477294921875
			]
		},
		{
			"children":[
				38
			],
			"name":"Bone07",
			"rotation":[
				0.0018055806867778301,
				6.750168186995392e-14,
				-7.105442604194052e-15,
				0.9999983906745911
			],
			"scale":[
				1,
				0.9999999403953552,
				0.9999998807907104
			],
			"translation":[
				1.0000057955039665e-06,
				5.4578166007995605,
				-16.979875564575195
			]
		},
		{
			"children":[
				39
			],
			"name":"Bone06",
			"rotation":[
				-0.047520872205495834,
				-2.2950858991066525e-08,
				-1.0981555664812959e-09,
				0.9988702535629272
			],
			"translation":[
				1.2070768207195215e-07,
				8.61287389852805e-06,
				-2.6278319358825684
			]
		},
		{
			"children":[
				40
			],
			"name":"Bone05",
			"rotation":[
				0.70710688829422,
				-0.0002825358824338764,
				0.7071065902709961,
				0.00028253596974536777
			],
			"scale":[
				1,
				1.000000238418579,
				1.0000001192092896
			],
			"translation":[
				16.351961135864258,
				-9.42281436920166,
				-2.308503826498054e-05
			]
		},
		{
			"children":[
				33,
				37,
				41
			],
			"name":"Bip01 Spine",
			"rotation":[
				-1.879448859654076e-06,
				-4.2371087261017237e-07,
				0.00039778946666046977,
				0.9999999403953552
			],
			"scale":[
				0.9999998807907104,
				0.9999998807907104,
				0.9999999403953552
			],
			"translation":[
				3.5985591411590576,
				-0.0157623328268528,
				1.1693175565596903e-06
			]
		},
		{
			"name":"Mesh02",
			"rotation":[
				-0.5000002384185791,
				-0.4999995827674866,
				-0.5000002384185791,
				0.5
			],
			"scale":[
				0.9999999403953552,
				0.9999999403953552,
				0.9999998807907104
			],
			"translation":[
				25.513086318969727,
				-5.946132183074951,
				1.8750700950622559
			]
		},
		{
			"children":[
				6,
				12,
				42,
				43
			],
			"name":"Bip01 Pelvis",
			"rotation":[
				-0.5000861883163452,
				-0.4999139606952667,
				-0.4999133348464966,
				0.5000865459442139
			],
			"translation":[
				9.883187150616646e-12,
				-7.62939453125e-06,
				7.629395440744702e-06
			]
		},
		{
			"children":[
				0,
				44
			],
			"name":"Bip01",
			"rotation":[
				-0.7071072459220886,
				-0.7071062922477722,
				-4.214686555314984e-08,
				4.2146901080286625e-08
			],
			"scale":[
				0.9999998807907104,
				0.9999997615814209,
				0.9999998807907104
			],
			"translation":[
				0,
				3.451540760579519e-05,
				-109.950927734375
			]
		},
		{
			"name":"Null 9",
			"rotation":[
				-1,
				0,
				0,
				1.6788608547813055e-07
			]
		},
		{
			"name":"Null 16",
			"rotation":[
				-1,
				0,
				0,
				1.6788608547813055e-07
			]
		},
		{
			"name":"Null 21",
			"rotation":[
				-1,
				0,
				0,
				1.6788608547813055e-07
			]
		},
		{
			"name":"Null 24",
			"rotation":[
				-1,
				0,
				0,
				1.6788608547813055e-07
			]
		},
		{
			"name":"Null 32",
			"rotation":[
				-1,
				0,
				0,
				1.6788608547813055e-07
			]
		},
		{
			"name":"Null 41",
			"rotation":[
				-1,
				0,
				0,
				1.6788608547813055e-07
			]
		},
		{
			"name":"Null 52",
			"rotation":[
				-1,
				0,
				0,
				1.6788608547813055e-07
			]
		},
		{
			"name":"Null 53",
			"rotation":[
				-1,
				0,
				0,
				1.6788608547813055e-07
			]
		},
		{
			"name":"Null 54",
			"rotation":[
				-1,
				0,
				0,
				1.6788608547813055e-07
			]
		},
		{
			"name":"Null 55",
			"rotation":[
				-1,
				0,
				0,
				1.6788608547813055e-07
			]
		},
		{
			"mesh":0,
			"name":"texture_class-warrior_v1.jpg",
			"skin":0
		},
		{
			"children":[
				56,
				45,
				46,
				47,
				48,
				49,
				50,
				51,
				52,
				53,
				54,
				55
			],
			"name":"Armature",
			"rotation":[
				0.7071068286895752,
				0,
				0,
				0.7071068286895752
			],
			"scale":[
				0.009999999776482582,
				0.009999999776482582,
				0.009999999776482582
			]
		}
	],
	"materials":[
		{
			"doubleSided":true,
			"extensions":{
				"KHR_materials_specular":{
					"specularColorFactor":[
						2.0,
						2.0,
						2.0
					]
				}
			},
			"name":"texture_class-warrior_v1.jpg",
			"pbrMetallicRoughness":{
				"baseColorTexture":{
					"index":0
				},
				"metallicFactor":0.30000001192092896
			}
		}
	],
	"meshes":[
		{
			"name":"Mesh",
			"primitives":[
				{
					"attributes":{
						"POSITION":0,
						"NORMAL":1,
						"TEXCOORD_0":2,
						"JOINTS_0":3,
						"WEIGHTS_0":4
					},
					"indices":5,
					"material":0
				}
			]
		}
	],
	"textures":[
		{
			"sampler":0,
			"source":0
		}
	],
	"images":[
		{
			"mimeType":"image/jpeg",
			"name":"texture_class-warrior_v1",
			"uri":"texture_class-warrior_v1.jpg"
		}
	],
	"skins":[
		{
			"inverseBindMatrices":6,
			"joints":[
				45,
				0,
				44,
				6,
				5,
				4,
				3,
				2,
				1,
				12,
				11,
				10,
				9,
				8,
				7,
				42,
				33,
				32,
				15,
				14,
				13,
				23,
				22,
				21,
				20,
				18,
				17,
				16,
				19,
				31,
				30,
				29,
				28,
				26,
				25,
				24,
				27,
				37,
				36,
				35,
				34,
				41,
				40,
				39,
				38,
				43,
				46,
				47,
				48,
				49,
				50,
				51,
				52,
				53,
				54,
				55
			],
			"name":"Armature"
		}
	],
	"accessors":[
		{
			"bufferView":0,
			"componentType":5126,
			"count":86,
			"max":[
				0.10158300399780273,
				1.9442169666290283,
				0.15689285099506378
			],
			"min":[
				-0.0909389927983284,
				1.570544958114624,
				-0.10643413662910461
			],
			"type":"VEC3"
		},
		{
			"bufferView":1,
			"componentType":5126,
			"count":86,
			"type":"VEC3"
		},
		{
			"bufferView":2,
			"componentType":5126,
			"count":86,
			"type":"VEC2"
		},
		{
			"bufferView":3,
			"componentType":5121,
			"count":86,
			"type":"VEC4"
		},
		{
			"bufferView":4,
			"componentType":5126,
			"count":86,
			"type":"VEC4"
		},
		{
			"bufferView":5,
			"componentType":5123,
			"count":357,
			"type":"SCALAR"
		},
		{
			"bufferView":6,
			"componentType":5126,
			"count":56,
			"type":"MAT4"
		}
	],
	"bufferViews":[
		{
			"buffer":0,
			"byteLength":1032,
			"byteOffset":0,
			"target":34962
		},
		{
			"buffer":0,
			"byteLength":1032,
			"byteOffset":1032,
			"target":34962
		},
		{
			"buffer":0,
			"byteLength":688,
			"byteOffset":2064,
			"target":34962
		},
		{
			"buffer":0,
			"byteLength":344,
			"byteOffset":2752,
			"target":34962
		},
		{
			"buffer":0,
			"byteLength":1376,
			"byteOffset":3096,
			"target":34962
		},
		{
			"buffer":0,
			"byteLength":714,
			"byteOffset":4472,
			"target":34963
		},
		{
			"buffer":0,
			"byteLength":3584,
			"byteOffset":5188
		}
	],
	"samplers":[
		{
			"magFilter":9729,
			"minFilter":9987
		}
	],
	"buffers":[
		{
			"byteLength":8772,
			"uri":"helm_class-warrior_v1.bin"
		}
	]
}
