{
	"asset":{
		"generator":"Khronos glTF Blender I/O v4.4.56",
		"version":"2.0"
	},
	"extensionsUsed":[
		"KHR_materials_specular"
	],
	"scene":0,
	"scenes":[
		{
			"name":"Scene",
			"nodes":[
				57
			]
		}
	],
	"nodes":[
		{
			"name":"Bip01 Footsteps",
			"rotation":[
				-6.898716264913674e-08,
				-3.807854298543134e-08,
				0.7071062922477722,
				0.7071072459220886
			],
			"scale":[
				0.9999998807907104,
				0.9999998807907104,
				1
			],
			"translation":[
				1.1397410162317101e-05,
				-3.815554919128772e-06,
				-97.83674621582031
			]
		},
		{
			"name":"Bip01 L Toe02",
			"rotation":[
				2.4868994057537612e-14,
				1.7763566276420137e-15,
				-1.700029006457271e-15,
				1
			],
			"scale":[
				1.0000001192092896,
				1.0000001192092896,
				1
			],
			"translation":[
				4.161462783813477,
				1.8328933037992101e-06,
				9.789948762772838e-08
			]
		},
		{
			"children":[
				1
			],
			"name":"Bip01 L Toe01",
			"rotation":[
				1.0658139342335608e-14,
				1.7763568394002505e-15,
				-1.700029006457271e-15,
				1
			],
			"scale":[
				1.0000001192092896,
				1.0000001192092896,
				1
			],
			"translation":[
				4.161463260650635,
				1.8328946680412628e-06,
				-7.070995025060256e-07
			]
		},
		{
			"children":[
				2
			],
			"name":"Bip01 L Toe0",
			"rotation":[
				3.016171490344277e-08,
				-1.4307906859301056e-08,
				0.7071065306663513,
				0.7071070075035095
			],
			"scale":[
				1.0000001192092896,
				0.9999999403953552,
				1
			],
			"translation":[
				11.591198921203613,
				14.908243179321289,
				8.735767096368363e-07
			]
		},
		{
			"children":[
				3
			],
			"name":"Bip01 L Foot",
			"rotation":[
				-8.616080293677442e-09,
				2.5013802584794576e-08,
				-0.08081123232841492,
				0.9967294335365295
			],
			"translation":[
				49.43048095703125,
				1.0704577107389923e-05,
				1.2088507901353296e-06
			]
		},
		{
			"children":[
				4
			],
			"name":"Bip01 L Leg1",
			"rotation":[
				8.51635917342719e-09,
				-2.8865283496770644e-08,
				-0.14314010739326477,
				0.9897024035453796
			],
			"scale":[
				0.9999999403953552,
				0.9999999403953552,
				1
			],
			"translation":[
				49.43047332763672,
				8.170254659489729e-06,
				2.4198320716095623e-06
			]
		},
		{
			"children":[
				5
			],
			"name":"Bip01 L Leg",
			"rotation":[
				0.30648019909858704,
				0.9508770704269409,
				0.013380523771047592,
				0.041517049074172974
			],
			"scale":[
				1.0000001192092896,
				1.0000001192092896,
				1
			],
			"translation":[
				-3.4828051866497844e-05,
				1.930438884301111e-05,
				10.28154182434082
			]
		},
		{
			"name":"Bip01 R Toe02",
			"rotation":[
				-2.1316285460934795e-14,
				-1.220632928067289e-08,
				7.450588590529605e-09,
				1
			],
			"scale":[
				1,
				0.9999999403953552,
				0.9999998807907104
			],
			"translation":[
				4.161459922790527,
				-2.0173945358692436e-06,
				-1.4666684364783578e-06
			]
		},
		{
			"children":[
				7
			],
			"name":"Bip01 R Toe01",
			"rotation":[
				8.157037001410572e-08,
				1.3016017597067275e-08,
				0.2588192820549011,
				0.9659257531166077
			],
			"scale":[
				1,
				0.9999999403953552,
				1
			],
			"translation":[
				4.161457538604736,
				-3.525505235302262e-06,
				-6.219668193807593e-07
			]
		},
		{
			"children":[
				8
			],
			"name":"Bip01 R Toe0",
			"rotation":[
				9.257188082756329e-08,
				-1.35474165219307e-08,
				0.7071064114570618,
				0.7071071267127991
			],
			"translation":[
				11.591197967529297,
				14.908230781555176,
				-2.9941647881059907e-06
			]
		},
		{
			"children":[
				9
			],
			"name":"Bip01 R Foot",
			"rotation":[
				-0.03557075932621956,
				-0.025246160104870796,
				-0.037222012877464294,
				0.9983546137809753
			],
			"scale":[
				0.9999999403953552,
				1.0000001192092896,
				1
			],
			"translation":[
				49.43046951293945,
				-1.0132789611816406e-06,
				9.5367431640625e-07
			]
		},
		{
			"children":[
				10
			],
			"name":"Bip01 R Leg1",
			"rotation":[
				-2.9391037159598454e-08,
				3.547194893371852e-08,
				-0.3944171071052551,
				0.9189315438270569
			],
			"scale":[
				1.0000001192092896,
				1.0000001192092896,
				0.9999999403953552
			],
			"translation":[
				49.43047332763672,
				2.2649765014648438e-06,
				-2.384185791015625e-06
			]
		},
		{
			"children":[
				11
			],
			"name":"Bip01 R Leg",
			"rotation":[
				-0.12219081073999405,
				0.9897057414054871,
				-0.046268027275800705,
				0.05840598791837692
			],
			"scale":[
				1.0000001192092896,
				1,
				1.0000001192092896
			],
			"translation":[
				4.570619694277411e-06,
				-1.5859093764447607e-05,
				-10.281534194946289
			]
		},
		{
			"name":"Bip01 Ponytail11",
			"rotation":[
				0.0674670934677124,
				0.17299355566501617,
				-0.04395074397325516,
				0.9816260933876038
			],
			"translation":[
				15.459748268127441,
				-0.013056161813437939,
				-0.0015499591827392578
			]
		},
		{
			"children":[
				13
			],
			"name":"Bip01 Ponytail1",
			"rotation":[
				0.1206667497754097,
				0.04976789653301239,
				-0.916253924369812,
				0.3787367045879364
			],
			"scale":[
				1.0000001192092896,
				1,
				0.9999998211860657
			],
			"translation":[
				6.884316444396973,
				-6.8842668533325195,
				-2.0656505512306467e-05
			]
		},
		{
			"children":[
				14
			],
			"name":"Bip01 Head",
			"rotation":[
				-0.08371065557003021,
				-0.038208577781915665,
				-0.10595975071191788,
				0.9901036024093628
			],
			"scale":[
				0.9999999403953552,
				0.9999998807907104,
				0.9999999403953552
			],
			"translation":[
				5.140772819519043,
				5.841255187988281e-06,
				1.1175870895385742e-06
			]
		},
		{
			"name":"Bip01 R Finger02",
			"rotation":[
				-1.3498464568328927e-07,
				2.5213205390173243e-07,
				0.2588188946247101,
				0.9659258127212524
			],
			"scale":[
				1.0000001192092896,
				1,
				1
			],
			"translation":[
				3.6242434978485107,
				-6.973743438720703e-06,
				-8.702278137207031e-06
			]
		},
		{
			"children":[
				16
			],
			"name":"Bip01 R Finger01",
			"rotation":[
				1.966919427331959e-07,
				1.1570114111236762e-07,
				0.2588191628456116,
				0.9659258127212524
			],
			"scale":[
				0.9999998807907104,
				0.9999998211860657,
				0.9999998807907104
			],
			"translation":[
				3.624239444732666,
				-5.0067901611328125e-06,
				-9.5367431640625e-07
			]
		},
		{
			"children":[
				17
			],
			"name":"Bip01 R Finger0",
			"rotation":[
				0.00042308756383135915,
				-0.00011292241106275469,
				0.2588194012641907,
				0.9659256339073181
			],
			"scale":[
				0.9999999403953552,
				1,
				0.9999999403953552
			],
			"translation":[
				10.423900604248047,
				-1.8095903396606445,
				-0.031104564666748047
			]
		},
		{
			"name":"knife_gdf",
			"rotation":[
				-0.3942224085330963,
				-0.49706360697746277,
				0.5866506695747375,
				0.5033462047576904
			],
			"scale":[
				1,
				1,
				0.9999999403953552
			],
			"translation":[
				9.02614688873291,
				3.666963577270508,
				0.26108646392822266
			]
		},
		{
			"children":[
				18,
				19
			],
			"name":"Bip01 R Hand",
			"rotation":[
				0.7067971229553223,
				-1.1782789499648061e-07,
				1.0532102123761433e-07,
				0.7074163556098938
			],
			"scale":[
				0.9999999403953552,
				0.9999998807907104,
				1
			],
			"translation":[
				27.473623275756836,
				2.4557113647460938e-05,
				6.556510925292969e-06
			]
		},
		{
			"children":[
				20
			],
			"name":"Bip01 R Arm2",
			"rotation":[
				6.713695910320894e-08,
				-1.6122494628234563e-07,
				-0.25260016322135925,
				0.9675707817077637
			],
			"scale":[
				0.9999999403953552,
				0.9999998807907104,
				0.9999999403953552
			],
			"translation":[
				37.63047790527344,
				2.09808349609375e-05,
				2.3365020751953125e-05
			]
		},
		{
			"children":[
				21
			],
			"name":"Bip01 R Arm1",
			"rotation":[
				0.08196387439966202,
				-0.5597407221794128,
				-0.099509097635746,
				0.8185781240463257
			],
			"translation":[
				13.400163650512695,
				7.62939453125e-06,
				1.9550323486328125e-05
			]
		},
		{
			"children":[
				22
			],
			"name":"Bip01 R Arm",
			"rotation":[
				-0.6253607869148254,
				-0.12482000887393951,
				0.7606227397918701,
				0.12164260447025299
			],
			"scale":[
				0.9999999403953552,
				0.9999998211860657,
				0.9999986886978149
			],
			"translation":[
				-9.5367431640625e-07,
				0.004113197326660156,
				-6.477370738983154
			]
		},
		{
			"name":"Bip01 L Finger02",
			"rotation":[
				9.352509522386754e-08,
				2.1886799572712334e-07,
				0.2588191330432892,
				0.9659258127212524
			],
			"scale":[
				0.9999999403953552,
				0.9999997615814209,
				0.9999998807907104
			],
			"translation":[
				3.624241828918457,
				-4.76837158203125e-06,
				-1.430511474609375e-06
			]
		},
		{
			"children":[
				24
			],
			"name":"Bip01 L Finger01",
			"rotation":[
				1.7162332710540795e-07,
				1.6969498517482862e-07,
				0.2588188350200653,
				0.9659258723258972
			],
			"scale":[
				1,
				1.0000001192092896,
				1
			],
			"translation":[
				3.6242566108703613,
				-7.62939453125e-06,
				-8.106231689453125e-06
			]
		},
		{
			"children":[
				25
			],
			"name":"Bip01 L Finger0",
			"rotation":[
				-0.00042253773426637053,
				0.00011268810339970514,
				0.25881972908973694,
				0.9659255743026733
			],
			"translation":[
				10.423904418945312,
				-1.809584617614746,
				0.031081676483154297
			]
		},
		{
			"name":"hand_bofdgne01",
			"rotation":[
				0.5866518616676331,
				-0.5033451318740845,
				-0.3942231833934784,
				0.49706289172172546
			],
			"scale":[
				0.9999999403953552,
				0.9999999403953552,
				1
			],
			"translation":[
				9.000609397888184,
				3.7695541381835938,
				0.5286450386047363
			]
		},
		{
			"children":[
				26,
				27
			],
			"name":"Bip01 L Hand",
			"rotation":[
				-0.7067973017692566,
				-6.582565248436367e-08,
				-7.240821275900089e-08,
				0.7074161767959595
			],
			"translation":[
				27.473615646362305,
				-2.3365020751953125e-05,
				-8.58306884765625e-06
			]
		},
		{
			"children":[
				28
			],
			"name":"Bip01 L Arm2",
			"rotation":[
				-1.872315635864652e-09,
				-3.2765537838486125e-08,
				-0.10151002556085587,
				0.9948345422744751
			],
			"scale":[
				0.9999999403953552,
				0.9999999403953552,
				1
			],
			"translation":[
				37.630428314208984,
				-2.2411346435546875e-05,
				-2.86102294921875e-06
			]
		},
		{
			"children":[
				29
			],
			"name":"Bip01 L Arm1",
			"rotation":[
				0.2502850890159607,
				0.5525601506233215,
				-0.012037976644933224,
				0.794914960861206
			],
			"scale":[
				1.0000001192092896,
				1.000000238418579,
				1
			],
			"translation":[
				13.40017032623291,
				-4.76837158203125e-06,
				-3.0100345611572266e-05
			]
		},
		{
			"children":[
				30
			],
			"name":"Bip01 L Arm",
			"rotation":[
				-0.6082552075386047,
				0.20976068079471588,
				-0.7502214908599854,
				0.1522950828075409
			],
			"scale":[
				0.9999998211860657,
				0.9999998211860657,
				0.9999991059303284
			],
			"translation":[
				2.314150333404541e-05,
				0.004076361656188965,
				6.477370738983154
			]
		},
		{
			"children":[
				15,
				23,
				31
			],
			"name":"Bip01 Neck",
			"rotation":[
				2.4682828225763842e-08,
				-6.426849097351806e-08,
				0.014999033883213997,
				0.9998875260353088
			],
			"scale":[
				0.9999999403953552,
				0.9999998807907104,
				1
			],
			"translation":[
				26.009624481201172,
				-0.004095315933227539,
				3.591179847717285e-06
			]
		},
		{
			"children":[
				32
			],
			"name":"Bip01 Spine1",
			"rotation":[
				0.04166889563202858,
				0.041602034121751785,
				0.045437198132276535,
				0.9972304105758667
			],
			"scale":[
				1,
				1.0000001192092896,
				1
			],
			"translation":[
				19.80328369140625,
				-0.020559601485729218,
				-0.001795621239580214
			]
		},
		{
			"name":"Bone04",
			"rotation":[
				7.852213457226753e-08,
				-1.3462582160173042e-09,
				7.253813549823462e-09,
				1
			],
			"translation":[
				1.989465090446174e-06,
				-0.6064307689666748,
				-26.48052215576172
			]
		},
		{
			"children":[
				34
			],
			"name":"Bone03",
			"rotation":[
				0.3067566454410553,
				1.831048734857177e-07,
				1.8329846085407553e-08,
				0.9517880082130432
			],
			"scale":[
				1,
				1,
				0.9999998807907104
			],
			"translation":[
				-6.314273377938662e-06,
				-3.6385464668273926,
				-20.011978149414062
			]
		},
		{
			"children":[
				35
			],
			"name":"Bone02",
			"rotation":[
				-0.2716755270957947,
				-3.284190341901194e-08,
				7.419623804238995e-10,
				0.9623889327049255
			],
			"translation":[
				9.6876647148747e-08,
				-0.6064226627349854,
				-3.234264850616455
			]
		},
		{
			"children":[
				36
			],
			"name":"Bone01",
			"rotation":[
				0.7071067690849304,
				-0.00028168136486783624,
				0.7071067094802856,
				0.0002816752821672708
			],
			"scale":[
				1,
				1.0000001192092896,
				1.0000001192092896
			],
			"translation":[
				15.155044555664062,
				10.590136528015137,
				2.650291207828559e-05
			]
		},
		{
			"name":"Bone08",
			"rotation":[
				7.447670213878155e-08,
				-1.4040481666199867e-08,
				2.61049892813503e-09,
				1
			],
			"scale":[
				0.9999999403953552,
				0.9999999403953552,
				1
			],
			"translation":[
				1.977714418899268e-06,
				2.627830743789673,
				-27.895490646362305
			]
		},
		{
			"children":[
				38
			],
			"name":"Bone07",
			"rotation":[
				-0.07603055983781815,
				2.032467349977196e-08,
				-4.029852895826025e-09,
				0.9971055388450623
			],
			"scale":[
				1,
				1,
				0.9999999403953552
			],
			"translation":[
				4.061657818965614e-07,
				5.457813739776611,
				-16.979877471923828
			]
		},
		{
			"children":[
				39
			],
			"name":"Bone06",
			"rotation":[
				-0.09531168639659882,
				1.5277633735877316e-07,
				-2.4103995244217913e-08,
				0.9954475164413452
			],
			"scale":[
				1,
				0.9999999403953552,
				1
			],
			"translation":[
				-1.3675189620698802e-06,
				4.753470420837402e-06,
				-2.6278140544891357
			]
		},
		{
			"children":[
				40
			],
			"name":"Bone05",
			"rotation":[
				0.7071067690849304,
				-0.0002820618392433971,
				0.7071067094802856,
				0.00028200005181133747
			],
			"scale":[
				1,
				0.9999999403953552,
				1
			],
			"translation":[
				16.351947784423828,
				-9.422818183898926,
				-1.9287419490865432e-05
			]
		},
		{
			"children":[
				33,
				37,
				41
			],
			"name":"Bip01 Spine",
			"rotation":[
				0.04161518067121506,
				-0.04545421898365021,
				0.045834291726350784,
				0.9970462918281555
			],
			"scale":[
				1.0000001192092896,
				1,
				1
			],
			"translation":[
				3.5863277912139893,
				-0.01564604602754116,
				0.31239795684814453
			]
		},
		{
			"name":"Mesh04",
			"rotation":[
				-0.5000000596046448,
				-0.5000000596046448,
				-0.4999997317790985,
				0.5000001192092896
			],
			"scale":[
				0.9999999403953552,
				0.9999999403953552,
				1
			],
			"translation":[
				25.57855224609375,
				-5.954248905181885,
				1.875084400177002
			]
		},
		{
			"children":[
				6,
				12,
				42,
				43
			],
			"name":"Bip01 Pelvis",
			"rotation":[
				-0.47771409153938293,
				-0.47771427035331726,
				-0.5213338732719421,
				0.5213341116905212
			],
			"scale":[
				0.9999998211860657,
				0.9999997615814209,
				0.9999999403953552
			],
			"translation":[
				-2.9007623195648193,
				0.4704742431640625,
				-2.6394019414510694e-07
			]
		},
		{
			"children":[
				0,
				44
			],
			"name":"Bip01",
			"rotation":[
				-0.7071072459220886,
				-0.7071062922477722,
				-4.1970164232907337e-08,
				4.197012515305687e-08
			],
			"translation":[
				-0.225071981549263,
				-3.2073140144348145,
				-97.82942199707031
			]
		},
		{
			"name":"Null 9",
			"rotation":[
				-1,
				0,
				0,
				1.6788608547813055e-07
			]
		},
		{
			"name":"Null 16",
			"rotation":[
				-1,
				0,
				0,
				1.6788608547813055e-07
			]
		},
		{
			"name":"Null 21",
			"rotation":[
				-1,
				0,
				0,
				1.6788608547813055e-07
			]
		},
		{
			"name":"Null 24",
			"rotation":[
				-1,
				0,
				0,
				1.6788608547813055e-07
			]
		},
		{
			"name":"Null 32",
			"rotation":[
				-1,
				0,
				0,
				1.6788608547813055e-07
			]
		},
		{
			"name":"Null 41",
			"rotation":[
				-1,
				0,
				0,
				1.6788608547813055e-07
			]
		},
		{
			"name":"Null 52",
			"rotation":[
				-1,
				0,
				0,
				1.6788608547813055e-07
			]
		},
		{
			"name":"Null 53",
			"rotation":[
				-1,
				0,
				0,
				1.6788608547813055e-07
			]
		},
		{
			"name":"Null 54",
			"rotation":[
				-1,
				0,
				0,
				1.6788608547813055e-07
			]
		},
		{
			"name":"Null 55",
			"rotation":[
				-1,
				0,
				0,
				1.6788608547813055e-07
			]
		},
		{
			"mesh":0,
			"name":"texture_class-warrior_v1.jpg",
			"skin":0
		},
		{
			"children":[
				56,
				45,
				46,
				47,
				48,
				49,
				50,
				51,
				52,
				53,
				54,
				55
			],
			"name":"Armature",
			"rotation":[
				0.7071068286895752,
				0,
				0,
				0.7071068286895752
			],
			"scale":[
				0.009999999776482582,
				0.009999999776482582,
				0.009999999776482582
			]
		}
	],
	"materials":[
		{
			"doubleSided":true,
			"extensions":{
				"KHR_materials_specular":{
					"specularColorFactor":[
						2.0,
						2.0,
						2.0
					]
				}
			},
			"name":"texture_class-warrior_v1.jpg",
			"pbrMetallicRoughness":{
				"baseColorTexture":{
					"index":0
				},
				"metallicFactor":0.30000001192092896
			}
		}
	],
	"meshes":[
		{
			"name":"Mesh",
			"primitives":[
				{
					"attributes":{
						"POSITION":0,
						"NORMAL":1,
						"TEXCOORD_0":2,
						"JOINTS_0":3,
						"WEIGHTS_0":4
					},
					"indices":5,
					"material":0
				}
			]
		}
	],
	"textures":[
		{
			"sampler":0,
			"source":0
		}
	],
	"images":[
		{
			"mimeType":"image/jpeg",
			"name":"texture_class-warrior_v1.jpg",
			"uri":"texture_class-warrior_v1.jpg"
		}
	],
	"skins":[
		{
			"inverseBindMatrices":6,
			"joints":[
				45,
				0,
				44,
				6,
				5,
				4,
				3,
				2,
				1,
				12,
				11,
				10,
				9,
				8,
				7,
				42,
				33,
				32,
				15,
				14,
				13,
				23,
				22,
				21,
				20,
				18,
				17,
				16,
				19,
				31,
				30,
				29,
				28,
				26,
				25,
				24,
				27,
				37,
				36,
				35,
				34,
				41,
				40,
				39,
				38,
				43,
				46,
				47,
				48,
				49,
				50,
				51,
				52,
				53,
				54,
				55
			],
			"name":"Armature"
		}
	],
	"accessors":[
		{
			"bufferView":0,
			"componentType":5126,
			"count":87,
			"max":[
				0.185480996966362,
				1.104552984237671,
				0.2813889682292938
			],
			"min":[
				-0.18781699240207672,
				0.4369499385356903,
				-0.3032560348510742
			],
			"type":"VEC3"
		},
		{
			"bufferView":1,
			"componentType":5126,
			"count":87,
			"type":"VEC3"
		},
		{
			"bufferView":2,
			"componentType":5126,
			"count":87,
			"type":"VEC2"
		},
		{
			"bufferView":3,
			"componentType":5121,
			"count":87,
			"type":"VEC4"
		},
		{
			"bufferView":4,
			"componentType":5126,
			"count":87,
			"type":"VEC4"
		},
		{
			"bufferView":5,
			"componentType":5123,
			"count":306,
			"type":"SCALAR"
		},
		{
			"bufferView":6,
			"componentType":5126,
			"count":56,
			"type":"MAT4"
		}
	],
	"bufferViews":[
		{
			"buffer":0,
			"byteLength":1044,
			"byteOffset":0,
			"target":34962
		},
		{
			"buffer":0,
			"byteLength":1044,
			"byteOffset":1044,
			"target":34962
		},
		{
			"buffer":0,
			"byteLength":696,
			"byteOffset":2088,
			"target":34962
		},
		{
			"buffer":0,
			"byteLength":348,
			"byteOffset":2784,
			"target":34962
		},
		{
			"buffer":0,
			"byteLength":1392,
			"byteOffset":3132,
			"target":34962
		},
		{
			"buffer":0,
			"byteLength":612,
			"byteOffset":4524,
			"target":34963
		},
		{
			"buffer":0,
			"byteLength":3584,
			"byteOffset":5136
		}
	],
	"samplers":[
		{
			"magFilter":9729,
			"minFilter":9987
		}
	],
	"buffers":[
		{
			"byteLength":8720,
			"uri":"pants_class-warrior_v1.bin"
		}
	]
}
