{
	"asset":{
		"generator":"Khronos glTF Blender I/O v4.4.56",
		"version":"2.0"
	},
	"extensionsUsed":[
		"KHR_materials_specular"
	],
	"scene":0,
	"scenes":[
		{
			"name":"Scene",
			"nodes":[
				57
			]
		}
	],
	"nodes":[
		{
			"name":"Bip01 Footsteps",
			"rotation":[
				-6.898716264913674e-08,
				-3.807854298543134e-08,
				0.7071062922477722,
				0.7071072459220886
			],
			"scale":[
				0.9999998807907104,
				0.9999998807907104,
				1
			],
			"translation":[
				1.1397410162317101e-05,
				-3.815554919128772e-06,
				-97.83674621582031
			]
		},
		{
			"name":"Bip01 L Toe02",
			"rotation":[
				1.0658142730467397e-14,
				1.0658141036401503e-14,
				5.960464477539063e-08,
				1
			],
			"scale":[
				1,
				0.9999999403953552,
				0.9999999403953552
			],
			"translation":[
				4.161460876464844,
				1.770344397300505e-06,
				-8.689414698892506e-07
			]
		},
		{
			"children":[
				1
			],
			"name":"Bip01 L Toe01",
			"rotation":[
				7.105428204633949e-15,
				2.1316282072803006e-14,
				3.7252863016590254e-09,
				1
			],
			"scale":[
				1,
				0.9999999403953552,
				0.9999999403953552
			],
			"translation":[
				4.161457538604736,
				8.166689440258779e-07,
				4.552031214188901e-07
			]
		},
		{
			"children":[
				2
			],
			"name":"Bip01 L Toe0",
			"rotation":[
				1.2052256082029089e-08,
				4.5138193627281e-08,
				0.7071066498756409,
				0.70710688829422
			],
			"scale":[
				1.0000001192092896,
				0.9999999403953552,
				1
			],
			"translation":[
				11.591201782226562,
				14.908243179321289,
				5.564011189562734e-07
			]
		},
		{
			"children":[
				3
			],
			"name":"Bip01 L Foot",
			"rotation":[
				5.024018978616596e-09,
				2.6807672526274473e-08,
				-0.0808112770318985,
				0.9967294335365295
			],
			"translation":[
				49.43048095703125,
				9.15765849640593e-06,
				-2.7779337870015297e-06
			]
		},
		{
			"children":[
				4
			],
			"name":"Bip01 L Leg1",
			"rotation":[
				-3.6495544364356647e-09,
				1.1272095257197634e-08,
				-0.14314024150371552,
				0.9897024035453796
			],
			"scale":[
				0.9999999403953552,
				1,
				1
			],
			"translation":[
				49.43048858642578,
				5.387884812080301e-06,
				-3.947725417674519e-06
			]
		},
		{
			"children":[
				5
			],
			"name":"Bip01 L Leg",
			"rotation":[
				0.3064802289009094,
				0.9508770704269409,
				0.013380547985434532,
				0.04151716083288193
			],
			"scale":[
				1,
				1.000000238418579,
				1
			],
			"translation":[
				-5.788457201560959e-06,
				1.7874395780381747e-05,
				10.281543731689453
			]
		},
		{
			"name":"Bip01 R Toe02",
			"rotation":[
				-6.394884621840902e-14,
				5.684341886080802e-14,
				-7.450566386069113e-09,
				1
			],
			"translation":[
				4.161459922790527,
				-1.6616568245808594e-06,
				4.808968014913262e-07
			]
		},
		{
			"children":[
				7
			],
			"name":"Bip01 R Toe01",
			"rotation":[
				6.99371724977027e-08,
				1.7111008787651372e-07,
				0.25881919264793396,
				0.9659257531166077
			],
			"translation":[
				4.161464214324951,
				3.8927628338569775e-06,
				1.0467365427757613e-06
			]
		},
		{
			"children":[
				8
			],
			"name":"Bip01 R Toe0",
			"rotation":[
				6.838372712536511e-08,
				-6.992320322751766e-08,
				0.7071065306663513,
				0.7071070075035095
			],
			"scale":[
				0.9999999403953552,
				0.9999998807907104,
				1
			],
			"translation":[
				11.59121036529541,
				14.908225059509277,
				-1.2948403309565037e-06
			]
		},
		{
			"children":[
				9
			],
			"name":"Bip01 R Foot",
			"rotation":[
				-0.03557076305150986,
				-0.025246145203709602,
				-0.037222202867269516,
				0.9983545541763306
			],
			"scale":[
				1,
				1.0000001192092896,
				1
			],
			"translation":[
				49.430477142333984,
				-1.5974044799804688e-05,
				2.205371856689453e-06
			]
		},
		{
			"children":[
				10
			],
			"name":"Bip01 R Leg1",
			"rotation":[
				2.964440781738631e-08,
				1.5202259007196517e-08,
				-0.3944169282913208,
				0.9189316034317017
			],
			"scale":[
				1.0000001192092896,
				1.000000238418579,
				1
			],
			"translation":[
				49.43048858642578,
				-1.1205673217773438e-05,
				2.384185791015625e-06
			]
		},
		{
			"children":[
				11
			],
			"name":"Bip01 R Leg",
			"rotation":[
				-0.12219084799289703,
				0.9897057414054871,
				-0.04626801237463951,
				0.05840598791837692
			],
			"scale":[
				1,
				0.999999463558197,
				1.0000001192092896
			],
			"translation":[
				2.8424612537492067e-05,
				-1.63019540195819e-05,
				-10.281534194946289
			]
		},
		{
			"name":"Bip01 Ponytail11",
			"rotation":[
				0.06746707111597061,
				0.17299358546733856,
				-0.0439506471157074,
				0.9816260933876038
			],
			"scale":[
				1.0000001192092896,
				1.000000238418579,
				1
			],
			"translation":[
				15.45976448059082,
				-0.013052878901362419,
				-0.0015463829040527344
			]
		},
		{
			"children":[
				13
			],
			"name":"Bip01 Ponytail1",
			"rotation":[
				0.12066672742366791,
				0.04976791515946388,
				-0.9162538647651672,
				0.3787367641925812
			],
			"scale":[
				0.9999996423721313,
				1,
				0.9999999403953552
			],
			"translation":[
				6.884316444396973,
				-6.884267807006836,
				-2.1065532564534806e-05
			]
		},
		{
			"children":[
				14
			],
			"name":"Bip01 Head",
			"rotation":[
				-0.08371075987815857,
				-0.03820857033133507,
				-0.10595975071191788,
				0.9901036024093628
			],
			"scale":[
				0.9999999403953552,
				1,
				0.9999999403953552
			],
			"translation":[
				5.140772342681885,
				4.082918167114258e-06,
				-1.4901161193847656e-06
			]
		},
		{
			"name":"Bip01 R Finger02",
			"rotation":[
				-2.4104403451019607e-07,
				1.1787052756062621e-07,
				0.25881892442703247,
				0.9659258723258972
			],
			"scale":[
				1,
				0.9999999403953552,
				1
			],
			"translation":[
				3.6242451667785645,
				-5.781650543212891e-06,
				-6.9141387939453125e-06
			]
		},
		{
			"children":[
				16
			],
			"name":"Bip01 R Finger01",
			"rotation":[
				5.785057055618381e-07,
				-1.3498474338291544e-08,
				0.258819580078125,
				0.9659256935119629
			],
			"scale":[
				0.9999999403953552,
				1,
				1
			],
			"translation":[
				3.624232292175293,
				3.159046173095703e-06,
				-1.1920928955078125e-06
			]
		},
		{
			"children":[
				17
			],
			"name":"Bip01 R Finger0",
			"rotation":[
				0.00042239067261107266,
				-0.00011309403635095805,
				0.25881901383399963,
				0.9659257531166077
			],
			"scale":[
				0.9999998211860657,
				0.9999999403953552,
				1
			],
			"translation":[
				10.42390251159668,
				-1.8095917701721191,
				-0.03108525276184082
			]
		},
		{
			"name":"knife_gdf",
			"rotation":[
				-0.39422252774238586,
				-0.49706366658210754,
				0.5866506695747375,
				0.5033461451530457
			],
			"scale":[
				0.9999999403953552,
				0.9999998807907104,
				0.9999998211860657
			],
			"translation":[
				9.026138305664062,
				3.6669650077819824,
				0.2610914707183838
			]
		},
		{
			"children":[
				18,
				19
			],
			"name":"Bip01 R Hand",
			"rotation":[
				0.7067973017692566,
				-5.7926563101773354e-08,
				8.754811631206394e-08,
				0.7074161767959595
			],
			"scale":[
				1.0000001192092896,
				1,
				1
			],
			"translation":[
				27.473628997802734,
				2.09808349609375e-05,
				-2.5033950805664062e-06
			]
		},
		{
			"children":[
				20
			],
			"name":"Bip01 R Arm2",
			"rotation":[
				8.969641385192517e-08,
				-6.497124616089422e-08,
				-0.2526001036167145,
				0.9675707817077637
			],
			"scale":[
				1,
				1,
				0.9999999403953552
			],
			"translation":[
				37.630428314208984,
				7.62939453125e-06,
				1.049041748046875e-05
			]
		},
		{
			"children":[
				21
			],
			"name":"Bip01 R Arm1",
			"rotation":[
				0.08196410536766052,
				-0.5597407817840576,
				-0.0995088517665863,
				0.8185781240463257
			],
			"scale":[
				1,
				1.0000001192092896,
				1.0000001192092896
			],
			"translation":[
				13.40017318725586,
				2.8133392333984375e-05,
				4.029273986816406e-05
			]
		},
		{
			"children":[
				22
			],
			"name":"Bip01 R Arm",
			"rotation":[
				-0.6253607273101807,
				-0.12481990456581116,
				0.7606227993965149,
				0.1216425821185112
			],
			"scale":[
				1,
				0.9999998807907104,
				0.9999995231628418
			],
			"translation":[
				-1.8477439880371094e-06,
				0.004111647605895996,
				-6.477373123168945
			]
		},
		{
			"name":"Bip01 L Finger02",
			"rotation":[
				4.72446330945786e-08,
				1.7740842395141954e-07,
				0.25881925225257874,
				0.9659257531166077
			],
			"translation":[
				3.6242523193359375,
				-1.71661376953125e-05,
				-3.814697265625e-06
			]
		},
		{
			"children":[
				24
			],
			"name":"Bip01 L Finger01",
			"rotation":[
				1.4655478253189358e-07,
				3.085363786681228e-08,
				0.2588188052177429,
				0.9659258723258972
			],
			"scale":[
				0.9999998807907104,
				0.9999999403953552,
				0.9999998807907104
			],
			"translation":[
				3.6242318153381348,
				-4.76837158203125e-06,
				-1.52587890625e-05
			]
		},
		{
			"children":[
				25
			],
			"name":"Bip01 L Finger0",
			"rotation":[
				-0.00042266977834515274,
				0.0001128365911426954,
				0.25881969928741455,
				0.9659255743026733
			],
			"scale":[
				1,
				1.0000001192092896,
				1
			],
			"translation":[
				10.423894882202148,
				-1.809584617614746,
				0.03109121322631836
			]
		},
		{
			"name":"hand_bofdgne01",
			"rotation":[
				0.5866518616676331,
				-0.5033451914787292,
				-0.39422300457954407,
				0.4970628321170807
			],
			"scale":[
				1,
				0.9999998211860657,
				0.9999998807907104
			],
			"translation":[
				9.00060749053955,
				3.7695560455322266,
				0.528651237487793
			]
		},
		{
			"children":[
				26,
				27
			],
			"name":"Bip01 L Hand",
			"rotation":[
				-0.7067973017692566,
				-5.5293547518431296e-08,
				-2.0405951772772823e-07,
				0.7074161767959595
			],
			"translation":[
				27.473644256591797,
				-5.7220458984375e-06,
				1.9073486328125e-06
			]
		},
		{
			"children":[
				28
			],
			"name":"Bip01 L Arm2",
			"rotation":[
				-2.4340113924381512e-08,
				1.74125460716823e-07,
				-0.10150985419750214,
				0.9948345422744751
			],
			"scale":[
				0.9999999403953552,
				1,
				0.9999998807907104
			],
			"translation":[
				37.630435943603516,
				-3.814697265625e-05,
				-1.430511474609375e-05
			]
		},
		{
			"children":[
				29
			],
			"name":"Bip01 L Arm1",
			"rotation":[
				0.25028541684150696,
				0.5525597333908081,
				-0.012038537301123142,
				0.7949150800704956
			],
			"scale":[
				0.9999998807907104,
				0.9999997615814209,
				0.9999998211860657
			],
			"translation":[
				13.400163650512695,
				-2.5272369384765625e-05,
				-1.1801719665527344e-05
			]
		},
		{
			"children":[
				30
			],
			"name":"Bip01 L Arm",
			"rotation":[
				-0.60825514793396,
				0.20976071059703827,
				-0.7502215504646301,
				0.15229496359825134
			],
			"scale":[
				1.0000001192092896,
				0.9999999403953552,
				0.9999995231628418
			],
			"translation":[
				7.778406143188477e-06,
				0.004076182842254639,
				6.477370738983154
			]
		},
		{
			"children":[
				15,
				23,
				31
			],
			"name":"Bip01 Neck",
			"rotation":[
				1.0292271213074855e-07,
				-8.336274959219736e-08,
				0.014999039471149445,
				0.9998875260353088
			],
			"scale":[
				1,
				1.0000001192092896,
				1.0000001192092896
			],
			"translation":[
				26.009624481201172,
				-0.004089266061782837,
				-3.2782554626464844e-07
			]
		},
		{
			"children":[
				32
			],
			"name":"Bip01 Spine1",
			"rotation":[
				0.04166888818144798,
				0.04160216450691223,
				0.04543718323111534,
				0.9972304105758667
			],
			"scale":[
				1,
				0.9999999403953552,
				1
			],
			"translation":[
				19.80328369140625,
				-0.02055928111076355,
				-0.0018021157011389732
			]
		},
		{
			"name":"Bone04",
			"rotation":[
				3.3905966034808444e-08,
				-3.171525264633601e-10,
				-2.4054952474372726e-11,
				1
			],
			"scale":[
				1,
				0.9999999403953552,
				0.9999999403953552
			],
			"translation":[
				1.3810372365696821e-06,
				-0.6064251661300659,
				-26.48052215576172
			]
		},
		{
			"children":[
				34
			],
			"name":"Bone03",
			"rotation":[
				0.3067567050457001,
				-1.0294591845649848e-08,
				1.2779608482560434e-08,
				0.9517880082130432
			],
			"scale":[
				1,
				1,
				0.9999998807907104
			],
			"translation":[
				2.453064553264994e-06,
				-3.638547897338867,
				-20.012008666992188
			]
		},
		{
			"children":[
				35
			],
			"name":"Bone02",
			"rotation":[
				-0.271675169467926,
				-1.4260110425823314e-08,
				-8.413802099482837e-09,
				0.9623890519142151
			],
			"scale":[
				1,
				1,
				1.0000001192092896
			],
			"translation":[
				1.694934326224029e-08,
				-0.6064218878746033,
				-3.234276533126831
			]
		},
		{
			"children":[
				36
			],
			"name":"Bone01",
			"rotation":[
				0.70710688829422,
				-0.0002818765351548791,
				0.7071065902709961,
				0.00028189047588966787
			],
			"scale":[
				1,
				1.000000238418579,
				1
			],
			"translation":[
				15.155029296875,
				10.59013557434082,
				2.1512132661882788e-05
			]
		},
		{
			"name":"Bone08",
			"rotation":[
				2.980232949312267e-08,
				-9.298626757470174e-09,
				-1.2143017702470615e-09,
				1
			],
			"scale":[
				0.9999998807907104,
				0.9999998211860657,
				0.9999998807907104
			],
			"translation":[
				1.6043131836340763e-06,
				2.627837896347046,
				-27.8955135345459
			]
		},
		{
			"children":[
				38
			],
			"name":"Bone07",
			"rotation":[
				-0.07603058964014053,
				2.1388617099660223e-08,
				-1.3130920351045461e-08,
				0.9971055388450623
			],
			"scale":[
				0.9999998807907104,
				0.9999998211860657,
				0.9999998211860657
			],
			"translation":[
				5.493611752172001e-07,
				5.457814693450928,
				-16.97989273071289
			]
		},
		{
			"children":[
				39
			],
			"name":"Bone06",
			"rotation":[
				-0.09531131386756897,
				5.439806383122914e-09,
				9.959714475371584e-08,
				0.9954475164413452
			],
			"scale":[
				1.0000001192092896,
				0.9999999403953552,
				1.0000001192092896
			],
			"translation":[
				5.170436452317517e-07,
				5.401670932769775e-06,
				-2.6278116703033447
			]
		},
		{
			"children":[
				40
			],
			"name":"Bone05",
			"rotation":[
				0.70710688829422,
				-0.00028221335378475487,
				0.7071065902709961,
				0.00028234970523044467
			],
			"scale":[
				0.9999998807907104,
				0.9999998807907104,
				0.9999999403953552
			],
			"translation":[
				16.351940155029297,
				-9.422819137573242,
				-2.4775152269285172e-05
			]
		},
		{
			"children":[
				33,
				37,
				41
			],
			"name":"Bip01 Spine",
			"rotation":[
				0.04161521792411804,
				-0.04545445740222931,
				0.04583427682518959,
				0.9970462918281555
			],
			"scale":[
				0.9999998807907104,
				0.9999999403953552,
				0.9999999403953552
			],
			"translation":[
				3.586350202560425,
				-0.015646446496248245,
				0.3123987913131714
			]
		},
		{
			"name":"Mesh01",
			"rotation":[
				-0.5000001192092896,
				-0.5000000596046448,
				-0.4999998211860657,
				0.5
			],
			"scale":[
				1,
				0.9999999403953552,
				1
			],
			"translation":[
				25.57855987548828,
				-5.954247951507568,
				1.875087022781372
			]
		},
		{
			"children":[
				6,
				12,
				42,
				43
			],
			"name":"Bip01 Pelvis",
			"rotation":[
				-0.47771382331848145,
				-0.4777145981788635,
				-0.521333634853363,
				0.5213344097137451
			],
			"scale":[
				0.9999998211860657,
				0.9999997615814209,
				0.9999998211860657
			],
			"translation":[
				-2.900763750076294,
				0.4704704284667969,
				-2.639402509885258e-07
			]
		},
		{
			"children":[
				0,
				44
			],
			"name":"Bip01",
			"rotation":[
				-0.7071072459220886,
				-0.7071062922477722,
				-4.1970164232907337e-08,
				4.197012515305687e-08
			],
			"translation":[
				-0.225071981549263,
				-3.2073140144348145,
				-97.82942199707031
			]
		},
		{
			"name":"Null 9",
			"rotation":[
				-1,
				0,
				0,
				1.6788608547813055e-07
			]
		},
		{
			"name":"Null 16",
			"rotation":[
				-1,
				0,
				0,
				1.6788608547813055e-07
			]
		},
		{
			"name":"Null 21",
			"rotation":[
				-1,
				0,
				0,
				1.6788608547813055e-07
			]
		},
		{
			"name":"Null 24",
			"rotation":[
				-1,
				0,
				0,
				1.6788608547813055e-07
			]
		},
		{
			"name":"Null 32",
			"rotation":[
				-1,
				0,
				0,
				1.6788608547813055e-07
			]
		},
		{
			"name":"Null 41",
			"rotation":[
				-1,
				0,
				0,
				1.6788608547813055e-07
			]
		},
		{
			"name":"Null 52",
			"rotation":[
				-1,
				0,
				0,
				1.6788608547813055e-07
			]
		},
		{
			"name":"Null 53",
			"rotation":[
				-1,
				0,
				0,
				1.6788608547813055e-07
			]
		},
		{
			"name":"Null 54",
			"rotation":[
				-1,
				0,
				0,
				1.6788608547813055e-07
			]
		},
		{
			"name":"Null 55",
			"rotation":[
				-1,
				0,
				0,
				1.6788608547813055e-07
			]
		},
		{
			"mesh":0,
			"name":"texture_class-warrior_v1.jpg",
			"skin":0
		},
		{
			"children":[
				56,
				45,
				46,
				47,
				48,
				49,
				50,
				51,
				52,
				53,
				54,
				55
			],
			"name":"Armature",
			"rotation":[
				0.7071068286895752,
				0,
				0,
				0.7071068286895752
			],
			"scale":[
				0.009999999776482582,
				0.009999999776482582,
				0.009999999776482582
			]
		}
	],
	"materials":[
		{
			"doubleSided":true,
			"extensions":{
				"KHR_materials_specular":{
					"specularColorFactor":[
						2.0,
						2.0,
						2.0
					]
				}
			},
			"name":"texture_class-warrior_v1.jpg",
			"pbrMetallicRoughness":{
				"baseColorTexture":{
					"index":0
				},
				"metallicFactor":0.30000001192092896
			}
		}
	],
	"meshes":[
		{
			"name":"Mesh",
			"primitives":[
				{
					"attributes":{
						"POSITION":0,
						"NORMAL":1,
						"TEXCOORD_0":2,
						"JOINTS_0":3,
						"WEIGHTS_0":4
					},
					"indices":5,
					"material":0
				}
			]
		}
	],
	"textures":[
		{
			"sampler":0,
			"source":0
		}
	],
	"images":[
		{
			"mimeType":"image/jpeg",
			"name":"texture_class-warrior_v1",
			"uri":"texture_class-warrior_v1.jpg"
		}
	],
	"skins":[
		{
			"inverseBindMatrices":6,
			"joints":[
				45,
				0,
				44,
				6,
				5,
				4,
				3,
				2,
				1,
				12,
				11,
				10,
				9,
				8,
				7,
				42,
				33,
				32,
				15,
				14,
				13,
				23,
				22,
				21,
				20,
				18,
				17,
				16,
				19,
				31,
				30,
				29,
				28,
				26,
				25,
				24,
				27,
				37,
				36,
				35,
				34,
				41,
				40,
				39,
				38,
				43,
				46,
				47,
				48,
				49,
				50,
				51,
				52,
				53,
				54,
				55
			],
			"name":"Armature"
		}
	],
	"accessors":[
		{
			"bufferView":0,
			"componentType":5126,
			"count":106,
			"max":[
				0.29867398738861084,
				1.1673998832702637,
				0.3881349563598633
			],
			"min":[
				-0.2467930018901825,
				0.6511650681495667,
				-0.4642080068588257
			],
			"type":"VEC3"
		},
		{
			"bufferView":1,
			"componentType":5126,
			"count":106,
			"type":"VEC3"
		},
		{
			"bufferView":2,
			"componentType":5126,
			"count":106,
			"type":"VEC2"
		},
		{
			"bufferView":3,
			"componentType":5121,
			"count":106,
			"type":"VEC4"
		},
		{
			"bufferView":4,
			"componentType":5126,
			"count":106,
			"type":"VEC4"
		},
		{
			"bufferView":5,
			"componentType":5123,
			"count":390,
			"type":"SCALAR"
		},
		{
			"bufferView":6,
			"componentType":5126,
			"count":56,
			"type":"MAT4"
		}
	],
	"bufferViews":[
		{
			"buffer":0,
			"byteLength":1272,
			"byteOffset":0,
			"target":34962
		},
		{
			"buffer":0,
			"byteLength":1272,
			"byteOffset":1272,
			"target":34962
		},
		{
			"buffer":0,
			"byteLength":848,
			"byteOffset":2544,
			"target":34962
		},
		{
			"buffer":0,
			"byteLength":424,
			"byteOffset":3392,
			"target":34962
		},
		{
			"buffer":0,
			"byteLength":1696,
			"byteOffset":3816,
			"target":34962
		},
		{
			"buffer":0,
			"byteLength":780,
			"byteOffset":5512,
			"target":34963
		},
		{
			"buffer":0,
			"byteLength":3584,
			"byteOffset":6292
		}
	],
	"samplers":[
		{
			"magFilter":9729,
			"minFilter":9987
		}
	],
	"buffers":[
		{
			"byteLength":9876,
			"uri":"class-warrior_gloves_v1.bin"
		}
	]
}
