{
	"asset":{
		"generator":"Khronos glTF Blender I/O v4.4.56",
		"version":"2.0"
	},
	"extensionsUsed":[
		"KHR_materials_specular"
	],
	"scene":0,
	"scenes":[
		{
			"name":"Scene",
			"nodes":[
				59
			]
		}
	],
	"nodes":[
		{
			"name":"Bip01 Footsteps",
			"rotation":[
				-6.898716264913674e-08,
				-3.807854298543134e-08,
				0.7071062922477722,
				0.7071072459220886
			],
			"scale":[
				0.9999998807907104,
				0.9999998807907104,
				1
			],
			"translation":[
				1.1397410162317101e-05,
				-3.815554919128772e-06,
				-97.83674621582031
			]
		},
		{
			"name":"Bip01 L Toe02",
			"rotation":[
				0,
				-4.973799150320701e-14,
				-5.587935447692871e-08,
				1
			],
			"translation":[
				4.16145658493042,
				1.96725568457623e-06,
				2.1679595647583483e-06
			]
		},
		{
			"children":[
				1
			],
			"name":"Bip01 L Toe01",
			"rotation":[
				-3.552713678800501e-15,
				-4.440892098500626e-14,
				5.21540641784668e-08,
				1
			],
			"translation":[
				4.16145658493042,
				-6.553482307936065e-07,
				1.6355036223103525e-06
			]
		},
		{
			"children":[
				2
			],
			"name":"Bip01 L Toe0",
			"rotation":[
				9.725575900176864e-09,
				3.418862704052117e-08,
				0.7071065306663513,
				0.7071070075035095
			],
			"scale":[
				1,
				0.9999999403953552,
				1
			],
			"translation":[
				11.59119987487793,
				14.908235549926758,
				6.806740202591754e-07
			]
		},
		{
			"children":[
				3
			],
			"name":"Bip01 L Foot",
			"rotation":[
				6.451916778615896e-09,
				2.790888942172387e-08,
				-0.08081115782260895,
				0.9967294335365295
			],
			"translation":[
				49.430477142333984,
				1.813708513509482e-05,
				-1.797350250853924e-06
			]
		},
		{
			"children":[
				4
			],
			"name":"Bip01 L Leg1",
			"rotation":[
				-6.882042491440643e-09,
				-1.5045728218865406e-08,
				-0.1431402862071991,
				0.9897024035453796
			],
			"scale":[
				0.9999997615814209,
				1,
				0.9999998807907104
			],
			"translation":[
				49.430477142333984,
				-6.050863703421783e-06,
				1.3551943993661553e-06
			]
		},
		{
			"children":[
				5
			],
			"name":"Bip01 L Leg",
			"rotation":[
				0.3064802587032318,
				0.9508770704269409,
				0.013380601070821285,
				0.041517049074172974
			],
			"scale":[
				1.0000001192092896,
				1,
				1
			],
			"translation":[
				-1.1797258594015148e-05,
				1.958494794962462e-05,
				10.281539916992188
			]
		},
		{
			"name":"Bip01 R Toe02",
			"rotation":[
				7.105427357601002e-15,
				2.4868995751603507e-14,
				-6.705523958316917e-08,
				1
			],
			"translation":[
				4.161463260650635,
				1.5589121176162735e-06,
				4.593226208271517e-07
			]
		},
		{
			"children":[
				7
			],
			"name":"Bip01 R Toe01",
			"rotation":[
				9.193189498546417e-08,
				1.6080129228157602e-07,
				0.2588193118572235,
				0.9659257531166077
			],
			"scale":[
				1,
				0.9999999403953552,
				1.0000001192092896
			],
			"translation":[
				4.161458969116211,
				1.0880239642574452e-06,
				3.6797518987441435e-07
			]
		},
		{
			"children":[
				8
			],
			"name":"Bip01 R Toe0",
			"rotation":[
				7.489941111771259e-08,
				-1.0541516815010255e-07,
				0.7071065306663513,
				0.7071070075035095
			],
			"scale":[
				1,
				1,
				1.0000001192092896
			],
			"translation":[
				11.591204643249512,
				14.908230781555176,
				-1.3324788596946746e-06
			]
		},
		{
			"children":[
				9
			],
			"name":"Bip01 R Foot",
			"rotation":[
				-0.035570766776800156,
				-0.025246134027838707,
				-0.0372219979763031,
				0.9983546137809753
			],
			"scale":[
				0.9999998211860657,
				0.9999998807907104,
				0.9999999403953552
			],
			"translation":[
				49.430458068847656,
				1.0192394256591797e-05,
				2.682209014892578e-06
			]
		},
		{
			"children":[
				10
			],
			"name":"Bip01 R Leg1",
			"rotation":[
				1.0134860728427952e-09,
				6.080905023964078e-08,
				-0.3944171667098999,
				0.9189314842224121
			],
			"scale":[
				1.0000001192092896,
				1.0000001192092896,
				1
			],
			"translation":[
				49.43048095703125,
				5.245208740234375e-06,
				-2.2649765014648438e-06
			]
		},
		{
			"children":[
				11
			],
			"name":"Bip01 R Leg",
			"rotation":[
				-0.12219083309173584,
				0.9897057414054871,
				-0.046267926692962646,
				0.05840599536895752
			],
			"scale":[
				1.0000001192092896,
				1,
				1.0000001192092896
			],
			"translation":[
				1.955478910531383e-05,
				-1.0910664968832862e-05,
				-10.281533241271973
			]
		},
		{
			"name":"Bip01 Ponytail11",
			"rotation":[
				0.0674670934677124,
				0.17299367487430573,
				-0.043950777500867844,
				0.981626033782959
			],
			"scale":[
				0.9999998807907104,
				0.9999999403953552,
				0.9999997615814209
			],
			"translation":[
				15.459754943847656,
				-0.01304452121257782,
				-0.0015511512756347656
			]
		},
		{
			"children":[
				13
			],
			"name":"Bip01 Ponytail1",
			"rotation":[
				0.12066667526960373,
				0.0497678704559803,
				-0.9162538647651672,
				0.37873682379722595
			],
			"scale":[
				0.9999996423721313,
				0.9999999403953552,
				1.0000001192092896
			],
			"translation":[
				6.884346961975098,
				-6.884268283843994,
				-2.0768096874235198e-05
			]
		},
		{
			"children":[
				14
			],
			"name":"Bip01 Head",
			"rotation":[
				-0.083710677921772,
				-0.03820861876010895,
				-0.10595972090959549,
				0.9901036024093628
			],
			"scale":[
				0.9999999403953552,
				0.9999997615814209,
				0.9999999403953552
			],
			"translation":[
				5.140772819519043,
				5.155801773071289e-06,
				4.917383193969727e-07
			]
		},
		{
			"name":"Bip01 R Finger02",
			"rotation":[
				-2.3333058152275044e-07,
				1.8222927167244052e-07,
				0.25881892442703247,
				0.9659258127212524
			],
			"scale":[
				1,
				1.0000001192092896,
				1.0000001192092896
			],
			"translation":[
				3.6242432594299316,
				-2.086162567138672e-06,
				-1.6689300537109375e-06
			]
		},
		{
			"children":[
				16
			],
			"name":"Bip01 R Finger01",
			"rotation":[
				0,
				7.327739126594679e-08,
				0.25881925225257874,
				0.9659257531166077
			],
			"translation":[
				3.6242451667785645,
				-3.6954879760742188e-06,
				3.814697265625e-06
			]
		},
		{
			"children":[
				17
			],
			"name":"Bip01 R Finger0",
			"rotation":[
				0.00042301209759898484,
				-0.00011289734538877383,
				0.2588194012641907,
				0.9659256339073181
			],
			"scale":[
				0.9999999403953552,
				1,
				1
			],
			"translation":[
				10.423908233642578,
				-1.8095899820327759,
				-0.031099319458007812
			]
		},
		{
			"name":"knife_gdf",
			"rotation":[
				-0.3942224085330963,
				-0.49706366658210754,
				0.5866507887840271,
				0.5033460259437561
			],
			"scale":[
				1.000000238418579,
				1.0000003576278687,
				1.0000001192092896
			],
			"translation":[
				9.026144027709961,
				3.666963815689087,
				0.2610938549041748
			]
		},
		{
			"children":[
				18,
				19
			],
			"name":"Bip01 R Hand",
			"rotation":[
				0.706797182559967,
				-3.6204102826786766e-08,
				8.557333330827532e-08,
				0.707416296005249
			],
			"translation":[
				27.47362518310547,
				1.4781951904296875e-05,
				1.3232231140136719e-05
			]
		},
		{
			"children":[
				20
			],
			"name":"Bip01 R Arm2",
			"rotation":[
				1.6531572555322782e-07,
				7.315279759723126e-08,
				-0.25260013341903687,
				0.9675707817077637
			],
			"scale":[
				1.0000001192092896,
				1,
				1.0000001192092896
			],
			"translation":[
				37.63045120239258,
				-1.9073486328125e-06,
				3.5762786865234375e-06
			]
		},
		{
			"children":[
				21
			],
			"name":"Bip01 R Arm1",
			"rotation":[
				0.08196363598108292,
				-0.5597407817840576,
				-0.09950917959213257,
				0.8185781240463257
			],
			"scale":[
				0.9999998807907104,
				0.9999997615814209,
				0.9999999403953552
			],
			"translation":[
				13.400169372558594,
				-4.291534423828125e-06,
				3.2901763916015625e-05
			]
		},
		{
			"children":[
				22
			],
			"name":"Bip01 R Arm",
			"rotation":[
				-0.6253607273101807,
				-0.12482008337974548,
				0.7606227993965149,
				0.12164251506328583
			],
			"scale":[
				0.9999999403953552,
				0.9999999403953552,
				0.9999994039535522
			],
			"translation":[
				1.4960765838623047e-05,
				0.004107356071472168,
				-6.477367401123047
			]
		},
		{
			"name":"Bip01 L Finger02",
			"rotation":[
				3.856704822169377e-08,
				3.9531222739697114e-08,
				0.25881925225257874,
				0.9659257531166077
			],
			"scale":[
				1,
				1.0000001192092896,
				1
			],
			"translation":[
				3.6242547035217285,
				-4.76837158203125e-06,
				-3.814697265625e-06
			]
		},
		{
			"children":[
				24
			],
			"name":"Bip01 L Finger01",
			"rotation":[
				1.099160513717834e-07,
				-9.641759612932788e-10,
				0.258818656206131,
				0.965925931930542
			],
			"scale":[
				1.0000001192092896,
				1,
				1.0000001192092896
			],
			"translation":[
				3.6242356300354004,
				-3.814697265625e-06,
				-4.76837158203125e-06
			]
		},
		{
			"children":[
				25
			],
			"name":"Bip01 L Finger0",
			"rotation":[
				-0.0004225724842399359,
				0.0001130014643422328,
				0.25881946086883545,
				0.9659256339073181
			],
			"scale":[
				1,
				0.9999998807907104,
				0.9999999403953552
			],
			"translation":[
				10.423883438110352,
				-1.8095874786376953,
				0.031089305877685547
			]
		},
		{
			"name":"hand_bofdgne01",
			"rotation":[
				0.586651623249054,
				-0.5033450722694397,
				-0.3942233920097351,
				0.497063010931015
			],
			"scale":[
				1,
				1,
				0.9999999403953552
			],
			"translation":[
				9.00058364868164,
				3.769552230834961,
				0.5286569595336914
			]
		},
		{
			"children":[
				26,
				27
			],
			"name":"Bip01 L Hand",
			"rotation":[
				-0.7067973017692566,
				-6.055960710682484e-08,
				6.714216738146206e-08,
				0.7074161767959595
			],
			"scale":[
				0.9999999403953552,
				0.9999998211860657,
				0.9999999403953552
			],
			"translation":[
				27.473602294921875,
				-7.62939453125e-06,
				1.9073486328125e-06
			]
		},
		{
			"children":[
				28
			],
			"name":"Bip01 L Arm2",
			"rotation":[
				-3.4637857027064456e-08,
				1.582107529429777e-07,
				-0.10150985419750214,
				0.9948345422744751
			],
			"scale":[
				0.9999999403953552,
				1,
				1
			],
			"translation":[
				37.63044738769531,
				-1.7642974853515625e-05,
				-5.245208740234375e-06
			]
		},
		{
			"children":[
				29
			],
			"name":"Bip01 L Arm1",
			"rotation":[
				0.2502850890159607,
				0.5525601506233215,
				-0.012038098648190498,
				0.794914960861206
			],
			"scale":[
				1,
				0.9999999403953552,
				1
			],
			"translation":[
				13.400172233581543,
				-1.0013580322265625e-05,
				-1.6927719116210938e-05
			]
		},
		{
			"children":[
				30
			],
			"name":"Bip01 L Arm",
			"rotation":[
				-0.60825514793396,
				0.20976074039936066,
				-0.7502215504646301,
				0.15229514241218567
			],
			"scale":[
				0.9999998211860657,
				1,
				0.9999998211860657
			],
			"translation":[
				7.547438144683838e-06,
				0.004076540470123291,
				6.47736930847168
			]
		},
		{
			"children":[
				15,
				23,
				31
			],
			"name":"Bip01 Neck",
			"rotation":[
				-6.035650130797876e-07,
				1.3598840098438814e-07,
				0.014998878352344036,
				0.9998875260353088
			],
			"scale":[
				1,
				0.9999999403953552,
				0.9999999403953552
			],
			"translation":[
				26.00960922241211,
				-0.004093736410140991,
				-3.7029385566711426e-06
			]
		},
		{
			"children":[
				32
			],
			"name":"Bip01 Spine1",
			"rotation":[
				0.04166889190673828,
				0.04160214215517044,
				0.04543726518750191,
				0.9972304105758667
			],
			"scale":[
				0.9999998807907104,
				1,
				1
			],
			"translation":[
				19.80327606201172,
				-0.020556066185235977,
				-0.0018019145354628563
			]
		},
		{
			"name":"Bone04",
			"rotation":[
				3.4713593777269125e-08,
				6.577476341362853e-10,
				-1.8774173327074095e-09,
				1
			],
			"translation":[
				1.0615635801514145e-06,
				-0.6064203381538391,
				-26.480527877807617
			]
		},
		{
			"children":[
				34
			],
			"name":"Bone03",
			"rotation":[
				0.2105983942747116,
				-1.327741472323396e-08,
				1.554996842401124e-08,
				0.9775726795196533
			],
			"scale":[
				0.9999999403953552,
				0.9999999403953552,
				1
			],
			"translation":[
				1.7755319277057424e-06,
				-3.6385462284088135,
				-20.011985778808594
			]
		},
		{
			"children":[
				35
			],
			"name":"Bone02",
			"rotation":[
				-0.27903977036476135,
				-8.701870335414696e-09,
				-1.5977992262605767e-08,
				0.9602795839309692
			],
			"scale":[
				0.9999999403953552,
				0.9999999403953552,
				0.9999999403953552
			],
			"translation":[
				1.2746386346407235e-07,
				-0.6064198613166809,
				-3.2342746257781982
			]
		},
		{
			"children":[
				36
			],
			"name":"Bone01",
			"rotation":[
				0.70710688829422,
				-0.00028177857166156173,
				0.7071065902709961,
				0.0002817802014760673
			],
			"scale":[
				1,
				1.000000238418579,
				1
			],
			"translation":[
				15.155029296875,
				10.59013557434082,
				2.1672989532817155e-05
			]
		},
		{
			"name":"Bone08",
			"rotation":[
				-3.518653102219105e-08,
				5.413715697955013e-09,
				5.852517137583391e-09,
				1
			],
			"scale":[
				0.9999999403953552,
				1,
				1
			],
			"translation":[
				1.4084603208175395e-06,
				2.627835988998413,
				-27.895505905151367
			]
		},
		{
			"children":[
				38
			],
			"name":"Bone07",
			"rotation":[
				0.07392390817403793,
				-4.789351137901576e-09,
				7.03719349459675e-09,
				0.9972639083862305
			],
			"scale":[
				1,
				0.9999998807907104,
				0.9999999403953552
			],
			"translation":[
				1.5121904652914964e-06,
				5.457818508148193,
				-16.979881286621094
			]
		},
		{
			"children":[
				39
			],
			"name":"Bone06",
			"rotation":[
				-0.15543189644813538,
				-2.060352954913469e-08,
				-4.6849102375290386e-09,
				0.9878466129302979
			],
			"scale":[
				0.9999999403953552,
				0.9999998807907104,
				0.9999998807907104
			],
			"translation":[
				3.214463504264131e-07,
				5.587935447692871e-06,
				-2.6278412342071533
			]
		},
		{
			"children":[
				40
			],
			"name":"Bone05",
			"rotation":[
				0.70710688829422,
				-0.0002822790702339262,
				0.7071065902709961,
				0.00028228454175405204
			],
			"scale":[
				1,
				0.9999999403953552,
				0.9999998807907104
			],
			"translation":[
				16.35194206237793,
				-9.422811508178711,
				-2.4515684344805777e-05
			]
		},
		{
			"children":[
				33,
				37,
				41
			],
			"name":"Bip01 Spine",
			"rotation":[
				0.041615284979343414,
				-0.04545437917113304,
				0.04583428055047989,
				0.9970462918281555
			],
			"scale":[
				1,
				1,
				0.9999999403953552
			],
			"translation":[
				3.5863428115844727,
				-0.015642041340470314,
				0.31239697337150574
			]
		},
		{
			"name":"Cylinder01",
			"rotation":[
				-0.6830124855041504,
				0.18301181495189667,
				-0.683013379573822,
				0.1830117553472519
			],
			"scale":[
				1,
				0.9999998807907104,
				0.9999998807907104
			],
			"translation":[
				53.34665298461914,
				-0.9942663311958313,
				-0.08003313094377518
			]
		},
		{
			"children":[
				6,
				12,
				42,
				43
			],
			"name":"Bip01 Pelvis",
			"rotation":[
				-0.4777138829231262,
				-0.4777145981788635,
				-0.521333634853363,
				0.5213343501091003
			],
			"scale":[
				0.9999999403953552,
				1,
				0.9999999403953552
			],
			"translation":[
				-2.900763750076294,
				0.4704704284667969,
				-2.639402509885258e-07
			]
		},
		{
			"children":[
				0,
				44
			],
			"name":"Bip01",
			"rotation":[
				-0.7071072459220886,
				-0.7071062922477722,
				-4.1970164232907337e-08,
				4.197012515305687e-08
			],
			"translation":[
				-0.225071981549263,
				-3.2073140144348145,
				-97.82942199707031
			]
		},
		{
			"name":"Null 9",
			"rotation":[
				-1,
				0,
				0,
				1.6788608547813055e-07
			]
		},
		{
			"name":"Null 16",
			"rotation":[
				-1,
				0,
				0,
				1.6788608547813055e-07
			]
		},
		{
			"name":"Null 21",
			"rotation":[
				-1,
				0,
				0,
				1.6788608547813055e-07
			]
		},
		{
			"name":"Null 24",
			"rotation":[
				-1,
				0,
				0,
				1.6788608547813055e-07
			]
		},
		{
			"name":"Null 32",
			"rotation":[
				-1,
				0,
				0,
				1.6788608547813055e-07
			]
		},
		{
			"name":"Null 41",
			"rotation":[
				-1,
				0,
				0,
				1.6788608547813055e-07
			]
		},
		{
			"name":"Null 52",
			"rotation":[
				-1,
				0,
				0,
				1.6788608547813055e-07
			]
		},
		{
			"name":"Null 53",
			"rotation":[
				-1,
				0,
				0,
				1.6788608547813055e-07
			]
		},
		{
			"name":"Null 54",
			"rotation":[
				-1,
				0,
				0,
				1.6788608547813055e-07
			]
		},
		{
			"name":"Null 55",
			"rotation":[
				-1,
				0,
				0,
				1.6788608547813055e-07
			]
		},
		{
			"mesh":0,
			"name":"head_07.jpg",
			"skin":0
		},
		{
			"mesh":1,
			"name":"hide.jpg",
			"skin":0
		},
		{
			"mesh":2,
			"name":"texture_class-warrior_v1.jpg",
			"skin":0
		},
		{
			"children":[
				56,
				57,
				58,
				45,
				46,
				47,
				48,
				49,
				50,
				51,
				52,
				53,
				54,
				55
			],
			"name":"Armature",
			"rotation":[
				0.7071068286895752,
				0,
				0,
				0.7071068286895752
			],
			"scale":[
				0.009999999776482582,
				0.009999999776482582,
				0.009999999776482582
			]
		}
	],
	"materials":[
		{
			"doubleSided":true,
			"extensions":{
				"KHR_materials_specular":{
					"specularColorFactor":[
						2.0,
						2.0,
						2.0
					]
				}
			},
			"name":"head_07.jpg",
			"pbrMetallicRoughness":{
				"baseColorTexture":{
					"index":0
				},
				"metallicFactor":0.30000001192092896
			}
		},
		{
			"doubleSided":true,
			"extensions":{
				"KHR_materials_specular":{
					"specularColorFactor":[
						2.0,
						2.0,
						2.0
					]
				}
			},
			"name":"hide.jpg",
			"pbrMetallicRoughness":{
				"baseColorTexture":{
					"index":1
				},
				"metallicFactor":0.30000001192092896
			}
		},
		{
			"doubleSided":true,
			"extensions":{
				"KHR_materials_specular":{
					"specularColorFactor":[
						2.0,
						2.0,
						2.0
					]
				}
			},
			"name":"texture_class-warrior_v1.jpg",
			"pbrMetallicRoughness":{
				"baseColorTexture":{
					"index":2
				},
				"metallicFactor":0.30000001192092896
			}
		}
	],
	"meshes":[
		{
			"name":"Mesh",
			"primitives":[
				{
					"attributes":{
						"POSITION":0,
						"NORMAL":1,
						"TEXCOORD_0":2,
						"JOINTS_0":3,
						"WEIGHTS_0":4
					},
					"indices":5,
					"material":0
				}
			]
		},
		{
			"name":"Mesh.001",
			"primitives":[
				{
					"attributes":{
						"POSITION":7,
						"NORMAL":8,
						"TEXCOORD_0":9,
						"JOINTS_0":10,
						"WEIGHTS_0":11
					},
					"indices":12,
					"material":1
				}
			]
		},
		{
			"name":"Mesh.002",
			"primitives":[
				{
					"attributes":{
						"POSITION":13,
						"NORMAL":14,
						"TEXCOORD_0":15,
						"JOINTS_0":16,
						"WEIGHTS_0":17
					},
					"indices":18,
					"material":2
				}
			]
		}
	],
	"textures":[
		{
			"sampler":0,
			"source":0
		},
		{
			"sampler":0,
			"source":1
		},
		{
			"sampler":0,
			"source":2
		}
	],
	"images":[
		{
			"mimeType":"image/jpeg",
			"name":"head_07",
			"uri":"head_07.jpg"
		},
		{
			"mimeType":"image/jpeg",
			"name":"hide.jpg",
			"uri":"hide_jpg.jpg"
		},
		{
			"mimeType":"image/jpeg",
			"name":"texture_class-warrior_v1",
			"uri":"texture_class-warrior_v1.jpg"
		}
	],
	"skins":[
		{
			"inverseBindMatrices":6,
			"joints":[
				45,
				0,
				44,
				6,
				5,
				4,
				3,
				2,
				1,
				12,
				11,
				10,
				9,
				8,
				7,
				42,
				33,
				32,
				15,
				14,
				13,
				23,
				22,
				21,
				20,
				18,
				17,
				16,
				19,
				31,
				30,
				29,
				28,
				26,
				25,
				24,
				27,
				37,
				36,
				35,
				34,
				41,
				40,
				39,
				38,
				43,
				46,
				47,
				48,
				49,
				50,
				51,
				52,
				53,
				54,
				55
			],
			"name":"Armature"
		}
	],
	"accessors":[
		{
			"bufferView":0,
			"componentType":5126,
			"count":53,
			"max":[
				0.14344200491905212,
				1.8243550062179565,
				0.25162389874458313
			],
			"min":[
				-0.1759980022907257,
				1.326403021812439,
				-0.21820910274982452
			],
			"type":"VEC3"
		},
		{
			"bufferView":1,
			"componentType":5126,
			"count":53,
			"type":"VEC3"
		},
		{
			"bufferView":2,
			"componentType":5126,
			"count":53,
			"type":"VEC2"
		},
		{
			"bufferView":3,
			"componentType":5121,
			"count":53,
			"type":"VEC4"
		},
		{
			"bufferView":4,
			"componentType":5126,
			"count":53,
			"type":"VEC4"
		},
		{
			"bufferView":5,
			"componentType":5123,
			"count":207,
			"type":"SCALAR"
		},
		{
			"bufferView":6,
			"componentType":5126,
			"count":56,
			"type":"MAT4"
		},
		{
			"bufferView":7,
			"componentType":5126,
			"count":19,
			"max":[
				0.13405999541282654,
				1.6188939809799194,
				0.25162389874458313
			],
			"min":[
				-0.16661599278450012,
				1.326403021812439,
				-0.21820910274982452
			],
			"type":"VEC3"
		},
		{
			"bufferView":8,
			"componentType":5126,
			"count":19,
			"type":"VEC3"
		},
		{
			"bufferView":9,
			"componentType":5126,
			"count":19,
			"type":"VEC2"
		},
		{
			"bufferView":10,
			"componentType":5121,
			"count":19,
			"type":"VEC4"
		},
		{
			"bufferView":11,
			"componentType":5126,
			"count":19,
			"type":"VEC4"
		},
		{
			"bufferView":12,
			"componentType":5123,
			"count":39,
			"type":"SCALAR"
		},
		{
			"bufferView":13,
			"componentType":5126,
			"count":24,
			"max":[
				0.06507699936628342,
				1.6231609582901,
				0.1208258718252182
			],
			"min":[
				-0.09761399775743484,
				1.4321339130401611,
				-0.0564391128718853
			],
			"type":"VEC3"
		},
		{
			"bufferView":14,
			"componentType":5126,
			"count":24,
			"type":"VEC3"
		},
		{
			"bufferView":15,
			"componentType":5126,
			"count":24,
			"type":"VEC2"
		},
		{
			"bufferView":16,
			"componentType":5121,
			"count":24,
			"type":"VEC4"
		},
		{
			"bufferView":17,
			"componentType":5126,
			"count":24,
			"type":"VEC4"
		},
		{
			"bufferView":18,
			"componentType":5123,
			"count":81,
			"type":"SCALAR"
		}
	],
	"bufferViews":[
		{
			"buffer":0,
			"byteLength":636,
			"byteOffset":0,
			"target":34962
		},
		{
			"buffer":0,
			"byteLength":636,
			"byteOffset":636,
			"target":34962
		},
		{
			"buffer":0,
			"byteLength":424,
			"byteOffset":1272,
			"target":34962
		},
		{
			"buffer":0,
			"byteLength":212,
			"byteOffset":1696,
			"target":34962
		},
		{
			"buffer":0,
			"byteLength":848,
			"byteOffset":1908,
			"target":34962
		},
		{
			"buffer":0,
			"byteLength":414,
			"byteOffset":2756,
			"target":34963
		},
		{
			"buffer":0,
			"byteLength":3584,
			"byteOffset":3172
		},
		{
			"buffer":0,
			"byteLength":228,
			"byteOffset":6756,
			"target":34962
		},
		{
			"buffer":0,
			"byteLength":228,
			"byteOffset":6984,
			"target":34962
		},
		{
			"buffer":0,
			"byteLength":152,
			"byteOffset":7212,
			"target":34962
		},
		{
			"buffer":0,
			"byteLength":76,
			"byteOffset":7364,
			"target":34962
		},
		{
			"buffer":0,
			"byteLength":304,
			"byteOffset":7440,
			"target":34962
		},
		{
			"buffer":0,
			"byteLength":78,
			"byteOffset":7744,
			"target":34963
		},
		{
			"buffer":0,
			"byteLength":288,
			"byteOffset":7824,
			"target":34962
		},
		{
			"buffer":0,
			"byteLength":288,
			"byteOffset":8112,
			"target":34962
		},
		{
			"buffer":0,
			"byteLength":192,
			"byteOffset":8400,
			"target":34962
		},
		{
			"buffer":0,
			"byteLength":96,
			"byteOffset":8592,
			"target":34962
		},
		{
			"buffer":0,
			"byteLength":384,
			"byteOffset":8688,
			"target":34962
		},
		{
			"buffer":0,
			"byteLength":162,
			"byteOffset":9072,
			"target":34963
		}
	],
	"samplers":[
		{
			"magFilter":9729,
			"minFilter":9987
		}
	],
	"buffers":[
		{
			"byteLength":9236,
			"uri":"leather_helm_v1.bin"
		}
	]
}
